/* XPM */
static char *f1995a5be99049b5cac7e7bdfeb7969bLxANWDjHN45cz5pC[] = {
/* columns rows colors chars-per-pixel */
"64 64 211 2 ",
"   c #191008",
".  c #131013",
"X  c #211303",
"o  c #351805",
"O  c #271D13",
"+  c #212419",
"@  c #3A2810",
"#  c #312616",
"$  c #252826",
"%  c #322B27",
"&  c #2A3538",
"*  c #313232",
"=  c #181F2A",
"-  c #461C00",
";  c #422010",
":  c #5A3716",
">  c #632800",
",  c #7B2400",
"<  c #633510",
"1  c #423621",
"2  c #3B4034",
"3  c #79471D",
"4  c #6C4D1E",
"5  c #56442B",
"6  c #424439",
"7  c #52503B",
"8  c #77582D",
"9  c #67502D",
"0  c #7A6B36",
"q  c #333A4C",
"w  c #2F394B",
"e  c #374145",
"r  c #344256",
"t  c #3B4668",
"y  c #3C4C73",
"u  c #4B5145",
"i  c #545758",
"p  c #46494E",
"a  c #6B5642",
"s  c #705E4A",
"d  c #5D6551",
"f  c #696A55",
"g  c #7B6550",
"h  c #6A6A4E",
"j  c #414D66",
"k  c #4B5466",
"l  c #43537D",
"z  c #495778",
"x  c #495676",
"c  c #55616B",
"v  c #6E716D",
"b  c #9C2800",
"n  c #9C3108",
"m  c #AB3602",
"M  c #B53C08",
"N  c #B93805",
"B  c #AD2808",
"V  c #A51C00",
"C  c #C53D08",
"Z  c #C53600",
"A  c #AB4C0A",
"S  c #B94509",
"D  c #BD510E",
"F  c #BB5515",
"G  c #BC6614",
"H  c #915C3F",
"J  c #AD792F",
"K  c #A26826",
"L  c #8F6027",
"P  c #C44308",
"I  c #C24A08",
"U  c #CD4B09",
"Y  c #CE4500",
"T  c #CB550E",
"R  c #C5570B",
"E  c #D25208",
"W  c #D55C0B",
"Q  c #DC5C0A",
"!  c #CE4110",
"~  c #CE4919",
"^  c #CC5D12",
"/  c #DB5E10",
"(  c #D55810",
")  c #D04C08",
"_  c #E65908",
"`  c #C3610E",
"'  c #DE6108",
"]  c #D6700E",
"[  c #C96710",
"{  c #D36713",
"}  c #DD6812",
"|  c #CE7B15",
" . c #D67D19",
".. c #DB761B",
"X. c #EF7108",
"o. c #E6751A",
"O. c #F16A09",
"+. c #C55D21",
"@. c #C56921",
"#. c #D87428",
"$. c #DA722F",
"%. c #916B4D",
"&. c #9C7C50",
"*. c #D66542",
"=. c #B28229",
"-. c #B88A37",
";. c #BD823C",
":. c #E78518",
">. c #FF8A19",
",. c #CA8229",
"<. c #DA8A2B",
"1. c #DA932B",
"2. c #D38B34",
"3. c #D69738",
"4. c #E48636",
"5. c #EF9629",
"6. c #FDA529",
"7. c #F7AE3A",
"8. c #F1AF35",
"9. c #CE8619",
"0. c #AF9854",
"q. c #BA9B5D",
"w. c #BA9E47",
"e. c #BAA75D",
"r. c #AAA770",
"t. c #E18C4D",
"y. c #E6A742",
"u. c #ECAB47",
"i. c #E8A84A",
"p. c #EAB749",
"a. c #F7BA4A",
"s. c #FFB642",
"d. c #EBA651",
"f. c #E9AD52",
"g. c #F1AF52",
"h. c #F0B458",
"j. c #DEB273",
"k. c #C5A245",
"l. c #EFC242",
"z. c #F7C242",
"x. c #F7CE5A",
"c. c #FFCE5A",
"v. c #FFD252",
"b. c #F7DF5A",
"n. c #EFCA5A",
"m. c #F1C163",
"M. c #F7D763",
"N. c #F7DB63",
"B. c #FFDF63",
"V. c #F7D26B",
"C. c #F7DF6B",
"Z. c #EFD773",
"A. c #FFDF73",
"S. c #F7DB7B",
"D. c #FBE567",
"F. c #F7E77B",
"G. c #FFE37B",
"H. c #FFEB7B",
"J. c #415282",
"K. c #495982",
"L. c #4D5D88",
"P. c #505F85",
"I. c #556384",
"U. c #66738A",
"Y. c #7A9390",
"T. c #848C8F",
"R. c #8C938C",
"E. c #ACA38B",
"W. c #AAAD96",
"Q. c #96AFAE",
"!. c #9FBCBA",
"~. c #8CA6A5",
"^. c #A6B5B5",
"/. c #A4ACA7",
"(. c #BDCABD",
"). c #EFDF8C",
"_. c #FFDF8C",
"`. c #FFE784",
"'. c #FFF78C",
"]. c #DEE3B5",
"[. c #E6ECBD",
"{. c #EFF3B5",
"}. c #C6CEB2",
"|. c #A5B0C5",
" X c #A5CACE",
".X c #AFCECE",
"XX c #ADCAC5",
"oX c #ADCED6",
"OX c #AED1D4",
"+X c #BCDBDB",
"@X c #B3D4D3",
"#X c #BDCCCA",
"$X c #C4DEDD",
"%X c #EFE3CE",
"&X c #EFF4C7",
"*X c #ECF4D3",
"=X c #CEE4E5",
"-X c #C5E7E6",
";X c #D4E6E6",
":X c #D6EBEE",
">X c #DDECEF",
",X c #D6E9E8",
"<X c #DEF0F1",
"1X c #EFEFE6",
"2X c #E1F2EF",
"3X c #EFF7EF",
"4X c #E6F6F7",
"5X c #EEF7F6",
"6X c #EFFFFF",
"7X c #F5FEFE",
"8X c #D8E1C4",
/* pixels */
"J.J.J.J.J.J.J.J.J.J.J.J.J.J.J.J.J.J.J.J.J.J.J.J.J.J.J.J.J.J.J.J.J.J.J.J.J.J.J.J.J.J.J.J.J.J.J.J.J.J.J.J.J.J.J.J.J.J.J.J.J.J.J.J.",
"J.J.J.J.J.J.J.J.J.J.J.J.J.J.J.J.J.J.J.J.J.J.J.J.J.J.J.J.J.J.J.J.J.J.J.J.J.J.J.J.J.J.J.J.J.J.J.J.J.J.J.J.J.J.J.J.J.J.J.J.J.J.J.J.",
"J.J.J.J.J.J.J.J.J.J.J.J.J.J.J.J.J.J.J.J.J.J.J.J.J.J.J.J.J.J.J.J.J.J.J.J.J.J.J.J.J.J.J.J.J.J.J.J.J.J.J.J.J.J.J.J.J.J.J.J.J.J.J.J.",
"J.J.J.J.J.J.J.J.J.J.J.J.J.J.J.J.J.J.J.J.J.J.J.J.J.J.J.J.J.J.J.J.J.J.J.J.J.J.J.J.J.J.J.J.J.J.J.J.J.J.J.J.J.J.J.J.J.J.J.J.J.J.J.J.",
"J.J.J.J.J.J.J.J.J.J.J.J.J.J.J.J.J.J.J.J.J.J.J.J.J.J.J.J.J.J.J.J.J.J.J.J.J.J.J.J.J.J.J.J.J.J.J.J.J.J.J.J.J.J.J.J.J.J.J.J.J.J.J.J.",
"J.J.J.J.J.J.J.J.J.J.J.J.J.J.J.J.J.J.J.J.J.J.J.J.J.J.J.J.J.J.J.J.J.J.J.J.J.J.J.J.J.J.J.J.J.J.J.J.J.J.J.J.J.J.J.J.J.J.J.J.J.J.J.J.",
"J.J.J.J.J.J.J.J.J.J.J.J.J.J.J.J.J.J.J.J.J.J.J.J.J.J.J.J.J.J.J.J.J.J.J.J.J.J.J.J.J.J.J.J.J.J.J.J.J.J.J.J.J.J.J.J.J.J.J.J.J.J.J.J.",
"J.J.J.J.J.J.J.J.J.J.J.J.J.J.J.J.J.J.J.J.J.J.J.J.J.J.J.J.J.J.J.J.J.J.J.J.J.J.J.J.J.J.J.J.J.J.J.J.J.J.J.J.J.J.J.J.J.J.J.J.J.J.J.J.",
"J.J.J.J.J.J.J.J.J.J.J.J.J.J.J.J.J.J.J.J.J.J.J.J.J.J.J.J.J.J.J.J.J.J.J.J.J.J.J.J.J.J.J.J.J.J.J.J.J.J.J.J.J.J.J.J.J.J.J.J.J.J.J.J.",
"J.J.J.J.J.J.J.J.J.J.J.J.J.J.J.J.J.J.J.J.J.J.J.J.J.J.J.J.J.J.J.J.J.J.J.J.J.J.J.J.J.J.J.J.J.J.J.J.J.J.J.J.J.J.J.J.J.J.J.J.J.J.J.J.",
"J.J.J.J.J.J.J.J.J.J.J.J.J.J.J.J.J.J.J.J.J.J.J.J.J.J.J.J.J.J.J.J.J.J.J.J.l y x U.J.J.J.J.J.J.J.J.J.J.J.J.J.J.J.J.J.J.J.J.J.J.J.J.",
"J.J.J.J.J.J.J.J.J.J.J.J.J.J.J.J.J.J.J.J.J.J.J.J.J.J.J.J.K.k w i E.% # # s s O O p j J.J.J.J.J.J.J.J.J.J.J.J.J.J.J.J.J.J.J.J.J.J.",
"J.J.J.J.J.J.J.J.J.J.J.J.J.J.J.J.J.J.J.J.J.J.J.J.J.J.J.J.i . 7.7.s.3 3 s.a.8 @ @ 0 w.6 v I.K.J.J.J.J.J.J.J.J.J.J.J.J.J.J.J.J.J.J.",
"J.J.J.J.J.J.J.J.J.J.J.J.J.J.J.J.J.J.J.J.J.J.J.J.J.J.J.L.5 4 7.7.2.2.s.s.a.-.a.a.x.x.1 1 f f c K.J.J.J.J.J.J.J.J.J.J.J.J.J.J.J.J.",
"J.J.J.J.J.J.J.J.J.J.J.J.J.J.J.J.J.J.J.J.J.J.J.J.J.J.J.i . J 7.7.K K 2.s.-.-.a.a.x.x.1 1 ).).).& z J.J.J.J.J.J.J.J.J.J.J.J.J.J.J.",
"J.J.J.J.J.J.J.J.J.J.J.J.J.J.J.J.J.J.J.J.J.J.J.J.J.J.i   7.7.J J 2.2.K 2.-.-.-.a.x.0 w.x.).).).r.6 j z z J.J.J.J.J.J.J.J.J.J.J.J.",
"J.J.J.J.J.J.J.J.J.J.J.J.J.J.J.J.J.J.J.J.J.J.J.J.J.v X 9 f.H.#.#.f.F.F.f.#.#.#.#.<.^ p.p.8.z.z.1.5 5 H H i J.J.J.J.J.J.J.J.J.J.J.",
"J.J.J.J.J.J.J.J.J.J.J.J.J.J.J.J.J.J.J.J.J.J.J.J.v 9 0.0.f.H.H.H.f.F.F.#.S #.A.i.<.^ ^ <.8.8.| z.v.v.v.v.i J.J.J.J.J.J.J.J.J.J.J.",
"J.J.J.J.J.J.J.J.J.J.J.J.J.J.J.J.J.J.J.J.J.J.J.U.X S.S.S.f.f.H.#.Z #.F.f.#.i.A.A.p.<.<.<.1.| 1.z.v.v.v.k.i J.J.J.J.J.J.J.J.J.J.J.",
"J.J.J.J.J.J.J.J.J.J.J.J.J.J.J.J.J.J.J.J.J.J.I.# 0.0.S.S.Z #.H.f.#.f.F.F.A.i.#.A.p.N ^ <.1.1.| 8.v.v.v.H k J.J.J.J.J.J.J.J.J.J.J.",
"J.J.J.J.J.J.J.J.J.J.J.J.J.J.J.J.J.J.J.J.J.z # e.( ( m.'.d.d.G.G.M.i.$.M.u.! ! u.N.t.*.*.[ [ 1.1.=.7.7.4 K.J.J.J.J.J.J.J.J.J.J.J.",
"J.J.J.J.J.J.J.J.J.J.J.J.J.J.J.J.J.J.J.J.K.% 0 `.m.m.m.'.G.d.$.G.i.! ! i.B.$.! $.N.h.h.h.p.D.D.p.=.7.=.* J.J.J.J.J.J.J.J.J.J.J.J.",
"J.J.J.J.J.J.J.J.J.J.J.J.J.J.J.J.J.J.J.J.* e.`.`.'.4.( m.G.$.Z d.M.$.! $.B.B.u.u.N.N.N.N.p.p.p.1.7.7.=.q J.J.J.J.J.J.J.J.J.J.J.J.",
"J.J.J.J.J.J.J.J.J.J.J.J.J.J.J.J.J.J.J.p `.e.0 e.'.4.( 4.G.G.d.d.M.M.M.M.u.B.B.u.t.N.h.t.1.1.1.1.=.7.=.t J.J.J.J.J.J.J.J.J.J.J.J.",
"J.J.J.J.J.J.J.J.J.J.J.J.J.J.J.J.J.l * # V.V.$.$.A.A.A.A.C.C.C.u.3.D.p.@.@.n.n.@.G 3.3.3. . . . .8 q.q.t J.J.J.J.J.J.J.J.J.J.J.J.",
"J.J.J.J.J.J.J.J.J.J.J.J.J.J.J.J.t % 8 0.V.V.V.V.g.A.g.4.#.C.u.Y @.p.D.@.2.2.n.y.,.,.,.,. . .[ [ q.q.8 # y J.J.J.J.J.J.J.J.J.J.J.",
"J.J.J.J.J.J.J.J.J.J.J.J.J.J.z e # # Z.Z.d.V.V.~ ( g.A.4.Y #.C.u.3.3.p.3.2.2.2.2.,.,.,.G I N N N 8 q.o `.f r K.J.J.J.J.J.J.J.J.J.",
"J.J.J.J.J.J.J.J.J.J.J.J.P.e * v # 0.Z.0.~ d.V.d.4.g.A.A.u.u.u.u.@.@.@.@.@.@.@.@.G A A A  .[ I I 8 q.o `.{.E.* I.J.J.J.J.J.J.J.J.",
"J.J.J.J.J.J.J.J.J.J.K.v o E.%Xo +.2.b.b.c.y.c.c.l.l.l.l.5.:.{ { o.m m I D D b b m m W X.6.} U } g g - 3X5X5X/.= J.J.J.J.J.J.J.J.",
"J.J.J.J.J.J.J.J.J.J.v 7 %X%Xo s p.p.p.b.y.,.c.c.<.<.<.F I I { 5.o.m I o...6.D b D X.W X.:.U U } g - - 3X5X5X5Xi q J.J.J.J.J.J.J.",
"J.J.J.J.J.J.J.J.J.L.7 &X%Xo s E.+.+.2.b.y.,.y.y.<.F F V { { { { I m W W ..6...b W W W X.} U } } g - W.3X5X5X5X5X$ z J.J.J.J.J.J.",
"J.J.J.J.J.J.J.J.J.k &X&Xs o E.E.2.2.2.p.y.,.F F F F F F { { { I m I W W D ....D W W W X.U U } } g - 3X3X5X5X5X5Xr.& J.J.J.J.J.J.",
"J.J.J.J.J.J.J.J.K.i 5X5Xo ;.;.;.| | | ` T <.<..._ _ M n W W W :.o.Z / / Q ' Q U ' ' ' E M R R ] f @ ;X;X>X4X4X4X[.+ K.J.J.J.J.J.",
"J.J.J.J.J.J.J.J.l 5X5X5Xo 3 3 3 B B B S <.<...T _ U n M N W :.6.o.) / / Q ' U Q ' ' T N M R R :.@ @ ;X;X>X4X4X4X[.d J.J.J.J.J.J.",
"J.J.J.J.J.J.J.J.x 5X5X5X3 3 ;.;.` S B S T ..T T U M U _ W :.:.:./ ) / / Q Q N Q E P P E M M ] :.@ /.,X,X>X4X4X4X[.}.J.J.J.J.J.J.",
"J.J.J.J.J.J.J.J.|.5X5X5Xh.o ;.;.` ` S S Z T T T U U _ _ W W :.:.) / / / Q N U U E E T E ] R :.:.@ ,X,X,X>X>X4X4X[./.J.J.J.J.J.J.",
"J.J.J.J.J.J.J.l >X5X5X5X1X%.> %.' ' E P E } 5.5.P P Q Q Q Q O.Q P } } W C C T T G G G >.j.&.j.&.. =X=X=X>X>X4X4X].T.J.J.J.J.J.J.",
"J.J.J.J.J.J.J.x 7X5X5X5X1X1X> %.' ' E P E } o.5.P E Q Q Q Q U N P P P P C C T T G G >.>.&.&.j.  i =X=X=X>X4X4X4X].U.J.J.J.J.J.J.",
"J.J.J.J.J.J.J.j 7X5X5X5X1X1X> %.' ' P P } } o.} M Q Q E N N U Q W P P P C C C T G G G G &.5   5 =X=X=X=X>X4X4X4X].t J.J.J.J.J.J.",
"J.J.J.J.J.J.J.j 7X5X5X5X1X1X> > ' ' N P E E E E P P M M U Q Q Q } } U U C T 9.9.G o o o   &.j.j.=X=X=X=X>X4X4X5X].y J.J.J.J.J.J.",
"J.J.J.J.J.J.J.l 4X4X4X4X4X4X1 1 O.n R O.A A A A ^ ^ ^ ^ H H H H a a a a u X X X $ $ c oX$X@XOX$X=X=X;X:X4X4X4X4X7 l J.J.J.J.J.J.",
"J.J.J.J.J.J.J.l 4X4X4X4X4X4Xv 1 R n O.O.' A A ' ^ ^ ^ ^ H H , , - - - - u Y.Y. XoXoXoXoXOXOX+X$X=X;X:X>X4X4X4X4X. J.J.J.J.J.J.J.",
"J.J.J.J.J.J.J.K.u 4X4X4X4X4Xv 1 R R R R ' ' ' ' ^ ^ : + , , , H R.XXXXXX X X X XoXoXoXoX+X$X$X$X=X;X>X<X4X4X4X$ k J.J.J.J.J.J.J.",
"J.J.J.J.J.J.J.J.u 4X4X4X4X4Xv 1 < < < < ; ; ; ; + + + : (.(.(.(.XXXXXXXX X X X XoXoXoXoX$X$X$X$X;X:X<X>X4X4Xv q J.J.J.J.J.J.J.J.",
"J.J.J.J.J.J.J.J.I.2 &X&X4X4X4X#XT.T.T.i e e v ^.Q.=X=X=X@X@X@X@X.X.X.X.X XOXOXOX@X@X+X+X$X$X;X;X4X4X4X4X[.E.w J.J.J.J.J.J.J.J.J.",
"J.J.J.J.J.J.J.J.J.K.v &X4X4X4X4X4X4X4X4X>X^.^.v Y.Y.Y.Y.~.~.~.~.Q.Q.Q.Q. XOXOX+X+X$X+X=X$X;X;X>X4X4X4X4Xd w J.J.J.J.J.J.J.J.J.J.",
"J.J.J.J.J.J.J.J.J.J.J.v 4X4X4X4X4X4X4X4X>X>X>X>X=XQ.Q.Q.!.!.!.!.^..X.X.X+X+X+X$X+X=X=X=X;X;X>X>X4X4X4X* r J.J.J.J.J.J.J.J.J.J.J.",
"J.J.J.J.J.J.J.J.J.J.J.J.c 4X4X4X4X4X4X4X>X>X>X>X=X=X=X=X-X-X-X-X+X+X+X+X$X$X$X$X=X=X;X;X>X>X>X4X4X^.q K.J.J.J.J.J.J.J.J.J.J.J.J.",
"J.J.J.J.J.J.J.J.J.J.J.J.J.x 8X*X5X5X5X5X4X4X4X4X,X,X,X,X=X=X=X=X=X=X=X=X:X:X:X:X>X>X>X>X*X*X*X*Xp l J.J.J.J.J.J.J.J.J.J.J.J.J.J.",
"J.J.J.J.J.J.J.J.J.J.J.J.J.J.l T.5X5X5X5X4X4X4X4X2X2X,X,X:X:X:X:X=X=X=X=X:X:X:X:X>X>X>X>X*XW.& y J.J.J.J.J.J.J.J.J.J.J.J.J.J.J.J.",
"J.J.J.J.J.J.J.J.J.J.J.J.J.J.J.J.z /.f 5X4X4X4X4X2X2X2X2X<X<X<X<X>X>X>X:X:X:X:X:X>X>X>Xi & y J.J.J.J.J.J.J.J.J.J.J.J.J.J.J.J.J.J.",
"J.J.J.J.J.J.J.J.J.J.J.J.J.J.J.J.J.l w $ % v ^.4X7X7X7X7X4X4X4X4X4X4X6X6X:X:X#XR.i . & l J.J.J.J.J.J.J.J.J.J.J.J.J.J.J.J.J.J.J.J.",
"J.J.J.J.J.J.J.J.J.J.J.J.J.J.J.J.J.J.J.J.J.t q & $ $ h h 6 6 6 6 6 6 6 6 $ $ $ w x J.J.J.J.J.J.J.J.J.J.J.J.J.J.J.J.J.J.J.J.J.J.J.",
"J.J.J.J.J.J.J.J.J.J.J.J.J.J.J.J.J.J.J.J.J.J.J.J.J.J.J.J.J.J.J.J.J.J.J.J.J.J.J.J.J.J.J.J.J.J.J.J.J.J.J.J.J.J.J.J.J.J.J.J.J.J.J.J.",
"J.J.J.J.J.J.J.J.J.J.J.J.J.J.J.J.J.J.J.J.J.J.J.J.J.J.J.J.J.J.J.J.J.J.J.J.J.J.J.J.J.J.J.J.J.J.J.J.J.J.J.J.J.J.J.J.J.J.J.J.J.J.J.J.",
"J.J.J.J.J.J.J.J.J.J.J.J.J.J.J.J.J.J.J.J.J.J.J.J.J.J.J.J.J.J.J.J.J.J.J.J.J.J.J.J.J.J.J.J.J.J.J.J.J.J.J.J.J.J.J.J.J.J.J.J.J.J.J.J.",
"J.J.J.J.J.J.J.J.J.J.J.J.J.J.J.J.J.J.J.J.J.J.J.J.J.J.J.J.J.J.J.J.J.J.J.J.J.J.J.J.J.J.J.J.J.J.J.J.J.J.J.J.J.J.J.J.J.J.J.J.J.J.J.J.",
"J.J.J.J.J.J.J.J.J.J.J.J.J.J.J.J.J.J.J.J.J.J.J.J.J.J.J.J.J.J.J.J.J.J.J.J.J.J.J.J.J.J.J.J.J.J.J.J.J.J.J.J.J.J.J.J.J.J.J.J.J.J.J.J.",
"J.J.J.J.J.J.J.J.J.J.J.J.J.J.J.J.J.J.J.J.J.J.J.J.J.J.J.J.J.J.J.J.J.J.J.J.J.J.J.J.J.J.J.J.J.J.J.J.J.J.J.J.J.J.J.J.J.J.J.J.J.J.J.J.",
"J.J.J.J.J.J.J.J.J.J.J.J.J.J.J.J.J.J.J.J.J.J.J.J.J.J.J.J.J.J.J.J.J.J.J.J.J.J.J.J.J.J.J.J.J.J.J.J.J.J.J.J.J.J.J.J.J.J.J.J.J.J.J.J.",
"J.J.J.J.J.J.J.J.J.J.J.J.J.J.J.J.J.J.J.J.J.J.J.J.J.J.J.J.J.J.J.J.J.J.J.J.J.J.J.J.J.J.J.J.J.J.J.J.J.J.J.J.J.J.J.J.J.J.J.J.J.J.J.J.",
"J.J.J.J.J.J.J.J.J.J.J.J.J.J.J.J.J.J.J.J.J.J.J.J.J.J.J.J.J.J.J.J.J.J.J.J.J.J.J.J.J.J.J.J.J.J.J.J.J.J.J.J.J.J.J.J.J.J.J.J.J.J.J.J.",
"J.J.J.J.J.J.J.J.J.J.J.J.J.J.J.J.J.J.J.J.J.J.J.J.J.J.J.J.J.J.J.J.J.J.J.J.J.J.J.J.J.J.J.J.J.J.J.J.J.J.J.J.J.J.J.J.J.J.J.J.J.J.J.J.",
"J.J.J.J.J.J.J.J.J.J.J.J.J.J.J.J.J.J.J.J.J.J.J.J.J.J.J.J.J.J.J.J.J.J.J.J.J.J.J.J.J.J.J.J.J.J.J.J.J.J.J.J.J.J.J.J.J.J.J.J.J.J.J.J."
};
