/* XPM */
static char *_f4bb7056b864973bad9402d08d2cfdfJSN18tXyncwz9wut[] = {
/* columns rows colors chars-per-pixel */
"64 64 202 2 ",
"   c #415282",
".  c #0D1A40",
"X  c #2C3858",
"o  c #3C4C78",
"O  c #3D4D7A",
"+  c #2A3555",
"@  c #303C60",
"#  c #222D49",
"$  c #37456D",
"%  c #36446B",
"&  c #3A4974",
"*  c #313E63",
"=  c #3F507E",
"-  c #3F4F7D",
";  c #2E3A5B",
":  c #354269",
">  c #2D395A",
",  c #121D3D",
"<  c #0E1B41",
"1  c #0B152E",
"2  c #0B132B",
"3  c #0F1B3B",
"4  c #0D1839",
"5  c #0C183A",
"6  c #0E1B3F",
"7  c #0D1A3F",
"8  c #0C183B",
"9  c #111C3B",
"0  c #080F24",
"q  c #0C1633",
"w  c #0D183A",
"e  c #212D49",
"r  c #38466F",
"t  c #0D1B41",
"y  c #0E193A",
"u  c #040815",
"i  c #040916",
"p  c #060C1E",
"a  c #0C142D",
"s  c #0D1735",
"d  c #0A1533",
"f  c #0C1738",
"g  c #0E1A3E",
"h  c #0F1C42",
"j  c #0B1636",
"k  c #0B1634",
"l  c #0B142D",
"z  c #070D20",
"x  c #050917",
"c  c #040915",
"v  c #050B1A",
"b  c #0B142E",
"n  c #0C1636",
"m  c #3D4D79",
"M  c #0D183B",
"N  c #070E22",
"B  c #0B1534",
"V  c #0B1533",
"C  c #0E1935",
"Z  c #070D1F",
"A  c #060B1C",
"S  c #0E1735",
"D  c #0B1635",
"F  c #0F1B41",
"G  c #3B4B76",
"H  c #0F1B3F",
"J  c #091026",
"K  c #050916",
"L  c #050A18",
"P  c #0B1530",
"I  c #0F1C41",
"U  c #2B3656",
"Y  c #060B1B",
"T  c #081025",
"R  c #0B1431",
"E  c #182341",
"W  c #394873",
"Q  c #0C1739",
"!  c #060C1B",
"~  c #080E23",
"^  c #0A1430",
"/  c #3A4A75",
"(  c #405180",
")  c #0C1838",
"_  c #09112B",
"`  c #334066",
"'  c #0F1835",
"]  c #0E1937",
"[  c #344167",
"{  c #0D193D",
"}  c #0D1837",
"|  c #080F25",
" . c #2F3B5E",
".. c #0E193B",
"X. c #080F22",
"o. c #050A19",
"O. c #0D1734",
"+. c #0E1939",
"@. c #080E20",
"#. c #0D1939",
"$. c #293351",
"%. c #2D3859",
"&. c #0E1835",
"*. c #0C1839",
"=. c #334167",
"-. c #2A3453",
";. c #091025",
":. c #283250",
">. c #35436B",
",. c #182341",
"<. c #111C3D",
"1. c #0E1B40",
"2. c #0E1833",
"3. c #050B1B",
"4. c #0D1A40",
"5. c #0D1630",
"6. c #0D1A3E",
"7. c #0E1A3F",
"8. c #050A1A",
"9. c #0B1637",
"0. c #37456E",
"q. c #0D193E",
"w. c #0A132A",
"e. c #0E1B42",
"r. c #334166",
"t. c #0B132C",
"y. c #060D1E",
"u. c #0C1635",
"i. c #37466F",
"p. c #0D1736",
"a. c #101D43",
"s. c #323F64",
"d. c #3B4A75",
"f. c #0A132D",
"g. c #070F23",
"h. c #37456E",
"j. c #121E43",
"k. c #091024",
"l. c #0D193C",
"z. c #0B1430",
"x. c #0E1938",
"c. c #3C4B77",
"v. c #3E4F7D",
"b. c #0A1128",
"n. c #3D4D7A",
"m. c #0C1736",
"M. c #2D395A",
"N. c #091129",
"B. c #3A4974",
"V. c #070C1D",
"C. c #0C1735",
"Z. c #070E21",
"A. c #081026",
"S. c #0D1A41",
"D. c #0E1A3A",
"F. c #0E1A3E",
"G. c #0A122A",
"H. c #405180",
"J. c #0E1733",
"K. c #09122E",
"L. c #101B3A",
"P. c #081028",
"I. c #070F24",
"U. c #1D2845",
"Y. c #101B3C",
"T. c #0F1A3B",
"R. c #111E44",
"E. c #0A1229",
"W. c #101D42",
"Q. c #394872",
"!. c #0B152F",
"~. c #0B1633",
"^. c #0A132B",
"/. c #060C1D",
"(. c #0A1228",
"). c #313E62",
"_. c None",
"`. c #0B1738",
"'. c #080F23",
"]. c #0D1632",
"[. c #0D193B",
"{. c #0C1634",
"}. c #091128",
"|. c #0B1737",
" X c #293352",
".X c #0C152F",
"XX c #0A132E",
"oX c #293453",
"OX c #3D4D7B",
"+X c #0F1B3D",
"@X c #111D41",
"#X c #0C1737",
"$X c #36446C",
"%X c #2B3655",
"&X c #36446D",
"*X c #2A3554",
"=X c #3C4C79",
"-X c #2B3757",
";X c #3E4E7C",
":X c #2C3758",
">X c #3F4F7E",
",X c #3E4E7B",
/* pixels */
"                                                                                                                                ",
"                                                                                                                                ",
"                                                                                                                                ",
"                                                                                                                                ",
"                                  . . X o                                   O + . . O                                           ",
"                                @ . . . . . . # $                     % . . . . . . . . &                                       ",
"                              o . . . . . . . . . . . . * =   - ; . . . . . . . . . . . . . :                                   ",
"                              . . . . . . . . . . . . . . . . . . . . . . . . . . . . . . . . . >                               ",
"                            , . . . < 1 2 3 4 5 6 < . . . . . . . . . 7 8 4 9 0 q w 7 . . . . . . . e =                         ",
"                          r . . . t y u u u i p a s d f g < . . h j k l z x u u c v b n h . . . . . . . . m                     ",
"                          . . . . M N u u u u u u u x N b q B V C Z x u u u u u u u u A S D F . . . . . . . . G                 ",
"                      O . . . . H J i u u u u u u u u u u u K i u u u u u u u u u u u u u L J P I . . . . . . .                 ",
"                    U . . . . < b v u u u u u u u u u u u u u u u u u u u u u u u u u u u u c Y T R g . . . . . E               ",
"                W . . . . . . Q A u u u u u u u u u u u u u u u u u u u u u u u u u u u u u u u c ! ~ ^ < . . . . /             ",
"            ( . . . . . . . ) Z u u u u u u u u u u u u u u u u u u u u u u u u u u u u u u u u u u u u _ . . . . .             ",
"          ` . . . . . < 5 ' K u u u u u u u u u u u u u u u u u u u u u u u u u u u u u u u u u u u u u Z ] . . . . #           ",
"        [ . . . . . { } | u u u u u u u u u u u u u u u u u u u u u u u u u u u u u u u u u u u u u u u c N { . . . . &         ",
"         .. . . < ..X.o.u u u u u u u u u u u u u u u u u u u u u u u u u u u u u u u u u u u u u u u u u i O.< . . . .         ",
"        ; . . < +.@.c u u u u u u u u u u u u u u u u u u u u u u u u u u u u u u u u u u u u u u u u u u u @.#.< . . . $.      ",
"        %.. . < &.u u u u u u u u u u u u u u u u u u u u u u u u u u u u u u u u u u u u u u u u u u u u u c | *.. . . .       ",
"        U . . < C u u u u u u u u u u u u u u u u u u u u u u u u u u u u u u u u u u u u u u u u u u u u u u u ' . . . =.      ",
"        -.. . < C u u u u u u u u u u u u u u u u u u u u u u u u u u u u u u u u u u u u u u u u u u u u u u u ;.. . .         ",
"        :.. . < ' u u u u u u u u u u u u u u u u u u u u u u u u u u u u u u u u u u u u u u u u u u u u u u x s . . >.        ",
"        ,.. . < ' u u u u u u u u u u u u u u u u u u u u u u u u u u u u u u u u u u u u u u u u u u u u u u T 5 . .           ",
"        <.. . 1.2.u u u u u u u u u u u u u u u u u u u u u u u u u u u u u u u u u u u u u u u u u u u u u 3.n < . >.          ",
"        4.. . 6 5.u u u u u u u u u u u u u u u u u u u u u u u u u u u u u u u u u u u u u u u u u u u u u l 6.. .             ",
"        . . . 7.a u u u u u u u u u u u u u u u u u u u u u u u u u u u u u u u u u u u u u u u u u u u u 8.9.. . 0.            ",
"        . . . q.w.u u u u u u u u u u u u u u u u u u u u u u u u u u u u u u u u u u u u u u u u u u u u ;.e.. .               ",
"        r.. . q.t.u u u u u u u u u u u u u u u u u u u u u u u u u u u u u u u u u u u u u u u u u u u y.u.. . i.              ",
"          . . < p.L u u u u u u u u u u u u u u u u u u u u u u u u u u u u u u u u u u u u u u u u u u ;.a.. . s.              ",
"          d.. . 6.f.u u u u u u u u u u u u u u u u u u u u u u u u u u u u u u u u u u u u u u u u u u z 4 . . .               ",
"            . . . ) Y u u u u u u u u u u u u u u u u u u u u u u u u u u u u u u u u u u u u u u u u u o._ . . .               ",
"            - . . 6.g.c u u u u u u u u u u u u u u u u u u u u u u u u u u u u u u u u u u u u u u u u c T < . . h.            ",
"              :.. . j.k.u u u u u u u u u u u u u u u u u u u u u u u u u u u u u u u u u u u u u u u u u Z l.. . .             ",
"                . . . z.Y u u u u u u u u u u u u u u u u u u u u u u u u u u u u u u u u u u u u u u u u x k . . .             ",
"                ,.. . x.Z u u u u u u u u u u u u u u u u u u u u u u u u u u u u u u u u u u u u u u u u u O.< . . c.          ",
"              v.. . D Z c u u u u u u u u u u u u u u u u u u u u u u u u u u u u u u u u u u u u u u u u u ;.5 . . #           ",
"              . . < b.K u u u u u u u u u u u u u u u u u u u u u u u u u u u u u u u u u u u u u u u u u u L B . . .           ",
"             .. < 4 Y u u u u u u u u u u u u u u u u u u u u u u u u u u u u u u u u u u u u u u u u u u u u O.I . . -         ",
"          n.. . 9.Z u u u u u u u u u u u u u u u u u u u u u u u u u u u u u u u u u u u u u u u u u u u u u J 5 . . %.        ",
"          . . 1.2 u u u u u u u u u u u u u u u u u u u u u u u u u u u u u u u u u u u u u u u u u u u u u v m.< . . .         ",
"        M.. . z.i u u u u u u u u u u u u u u u u u u u u u u u u u u u u u u u u u u u u u u u u u u u u u N.8 . . . B.        ",
"      o . . . p u u u u u u u u u u u u u u u u u u u u u u u u u u u u u u u u u u u u u u u u u u u u u L m.t . . .           ",
"      . . . . A u u u u u u u u u u u u u u u u u u u u u u u u u u u u u u u u u u u u u u u u u u u u c g.7 . . . o           ",
"      . . . . Z u u u u u u u u u u u u u u u u u u u u u u u u u u u u u u u u u u u u u u u u u u u u V.C.. . . .             ",
"      . . . . Z.u u u u u u u u u u u u u u u u u u u u u u u u u u u u u u u u u u u u u u u u u u u u A.S.. . . v.            ",
"      . . . . J u u u u u u u u u u u u u u u u u u u u u u u u u u u u u u u u u u u u u u u u u u u u D.. . . F.              ",
"      . . . . G.u u u u u u u u u u u u u u u u u u u u u u u u u u u u u u u u u u u u u u u u u u u u k . . . H.              ",
"      . . . . J.u u u u u u u u u u u u u u u u u u u u u u u u u u u u u u u u u u u u u u u u u u u u K.. . .                 ",
"      . . . . L.u u u u u u u u u u u u u u u u u u u u u u u u u u u u u u u u u u u u u u u u u u u u P.. . .                 ",
"      . . . . 9 u u u u u u u u u u u u u u u u u u u u u u u u u u u u u u u u u u u u u u u u u u u u I.. . .                 ",
"      U.. . . Y.u u u u u u u u u u u u u u u u u u u u u u u u u u u u u u u u u u u u u u u u u u u u 0 h . .                 ",
"      U . . . T.u u u u u u u u u u u u u u u u u u u u u u u u u u u u u u u u u u u u u u u u u u u u ;.R.. .                 ",
"       .. . . < D.| o.u u u u u u u u u u u u u u u u u u u u u u u u u u u u u u u u u u u u u u u u u ;.j.. .                 ",
"      ` . . . . . g f.z x u u u u u x k.Z L u u u u u u u u u u u u u u u u u u u u u u u u u u u u u u E.W.. . Q.              ",
"      0.. . . . . . . l.m.Z.u c Z !.D I l.D ~.^.p u u u u u u u u u u u K /.' (.8.u u u u u u u u u u z 8 . . . ).              ",
"      _.U . . . . . . . < `.&.O.9.7.< . . . < { j ~.' p K u u u u L '.].k j h [.D {.}.8.u u u u u u v |.. . . .  X              ",
"            4.. . . . . . . h F . . . . . . . . . < h j k .XX.'.&.d Q 1.< . . . . < [.B &.J L u u o.XX. . . . . oX              ",
"              OX. . . . . . . . . e +X. . . . . . . . . . . . . . . . . . . . . . . . . . . < @X.X#X. . . . . .                 ",
"                  / . . . . . $X          ).. . . . . . . . . . . . . . . . . %X4.. . . . . . . . . . . . . .                   ",
"                      &X*X                      =X-X. . . . . . . . . 4.$X          ;X:X. . . . . . . . . .                     ",
"                                                        >.. . . ).                          s.. . . . . . >X                    ",
"                                                                                                  W <.. ,X                      ",
"                                                                                                                                "
};
