/* XPM */
static char *e4f3cccdee2542ab859ebf1028951369oFNF8Vrj7UVMaagA[] = {
/* columns rows colors chars-per-pixel */
"64 64 162 2 ",
"   c #020202",
".  c gray3",
"X  c #313131",
"o  c #162343",
"O  c #1F2D52",
"+  c #1C305F",
"@  c #283044",
"#  c #2C354C",
"$  c #393F4F",
"%  c #243255",
"&  c #2D3750",
"*  c #2E3955",
"=  c #273958",
"-  c #2D3B5B",
";  c #313D5B",
":  c #2E3F63",
">  c #263A6A",
",  c #313E61",
"<  c #253D79",
"1  c #433D46",
"2  c #3A4154",
"3  c #34425F",
"4  c #3D465D",
"5  c #2E406F",
"6  c #344165",
"7  c #3C4661",
"8  c #3A4B63",
"9  c #34446C",
"0  c #38466E",
"q  c #3D5367",
"w  c #2E4772",
"e  c #29407A",
"r  c #384771",
"t  c #3B4B74",
"y  c #3E4E7A",
"u  c #36557D",
"i  c #4B4A4C",
"p  c #4A4C57",
"a  c #514D5A",
"s  c #494F60",
"d  c #444E6D",
"f  c #484E6B",
"g  c #47506D",
"h  c #4A536A",
"j  c #4A5669",
"k  c #5E5462",
"l  c #53536F",
"z  c #585469",
"x  c #565969",
"c  c #455275",
"v  c #4D5374",
"b  c #43517E",
"n  c #49527A",
"m  c #4C5A7C",
"M  c #525370",
"N  c #535D72",
"B  c #5D626F",
"V  c #4B6874",
"C  c #596070",
"Z  c gray39",
"A  c #67696D",
"S  c #646D7D",
"D  c #727272",
"F  c gray47",
"G  c #2B4483",
"H  c #2C498F",
"J  c #2C4B95",
"K  c #2E4E9B",
"L  c #385890",
"P  c #38638C",
"I  c #3B6E9A",
"U  c #3153A5",
"Y  c #3357A9",
"T  c #355DAE",
"R  c #3563AC",
"E  c #3763B2",
"W  c #3B70BD",
"Q  c #415282",
"!  c #5A6787",
"~  c #656E83",
"^  c #697286",
"/  c #6E788E",
"(  c #747A86",
")  c #6A7791",
"_  c #737C92",
"`  c #436AAD",
"'  c #4771B6",
"]  c #598692",
"[  c #7C889D",
"{  c #4185B6",
"}  c #7F8CA4",
"|  c #68A4BA",
" . c #79ACB3",
".. c #4080C9",
"X. c #4799CE",
"o. c #448AD4",
"O. c #4895DD",
"+. c #4899DB",
"@. c #4CA5DE",
"#. c #4FABE7",
"$. c #4EA6EB",
"%. c #51AEE6",
"&. c #5CAAE5",
"*. c #50B0EC",
"=. c #50AEF2",
"-. c #53B6F9",
";. c #56BDFF",
":. c #59BFFF",
">. c #5BC0FF",
",. c #6EC2EA",
"<. c #7AC8E7",
"1. c #73C8EE",
"2. c #62C5FF",
"3. c #6FCEFF",
"4. c #74D1FF",
"5. c #7BD5FD",
"6. c #838489",
"7. c #8C8D90",
"8. c #959799",
"9. c #8491A5",
"0. c #8D96A7",
"q. c #8A97AE",
"w. c #919FB6",
"e. c #93A1B7",
"r. c #96A4BB",
"t. c #A4A5A7",
"y. c #AEAEAF",
"u. c #A2A7B1",
"i. c #ACAEB2",
"p. c #B7B7B9",
"a. c #B8B8B9",
"s. c #9DACC4",
"d. c #A3B1C6",
"f. c #A5B4CD",
"g. c #ABBAD4",
"h. c #80C4D5",
"j. c #8FD3DF",
"k. c #BFC1C4",
"l. c #B3C4DF",
"z. c #83D6F4",
"x. c #B7C8E4",
"c. c #B8C9E5",
"v. c #93E5FF",
"b. c #A0EEFF",
"n. c #ACF5FD",
"m. c #CFD0D1",
"M. c #D5D5D5",
"N. c #DBDBDB",
"B. c #C0CFE8",
"V. c #C2D1E9",
"C. c #D2DDEF",
"Z. c #DEE5F2",
"A. c #E2E2E2",
"S. c #EDEEEE",
"D. c #E5EBF5",
"F. c #EBEFF4",
"G. c #ECF1F6",
"H. c #EDF1F9",
"J. c #F3F3F3",
"K. c #F3F6FB",
"L. c #F7F9FC",
"P. c #FFFFFF",
/* pixels */
"Q Q Q Q Q Q Q Q Q Q Q Q Q Q Q Q Q Q Q Q Q Q Q Q Q Q Q Q Q Q Q Q Q Q Q Q Q Q Q Q Q Q Q Q Q Q Q Q Q Q Q Q Q Q Q Q Q Q Q Q Q Q Q Q ",
"Q Q Q Q Q Q Q Q Q Q Q Q Q Q Q Q Q Q Q Q Q Q Q Q Q Q Q Q Q Q Q Q 3 8 Q Q Q Q Q Q Q Q Q Q Q Q Q Q Q Q Q Q Q Q Q Q Q Q Q Q Q Q Q Q ",
"Q Q Q Q Q Q Q Q Q Q Q Q Q Q Q Q Q Q Q Q Q Q Q Q Q Q Q Q Q Q y 8 h.%.b Q Q Q Q Q Q Q Q Q Q Q Q Q Q Q Q Q Q Q Q Q Q Q Q Q Q Q Q Q ",
"Q Q Q Q Q Q Q Q Q Q Q Q Q Q Q Q Q Q Q Q Q Q Q Q Q Q Q Q Q t V <.>.;.t Q Q Q Q Q Q Q Q Q Q Q Q Q Q Q Q Q Q Q Q Q Q Q Q Q Q Q Q Q ",
"Q Q Q Q Q Q Q Q Q Q Q Q Q Q Q Q Q Q Q Q Q Q Q Q Q Q Q Q y V 5.:.;.;.P Q Q Q Q Q Q Q Q Q Q Q Q Q Q Q Q Q Q Q Q Q Q Q Q Q Q Q Q Q ",
"Q Q Q Q Q Q Q Q Q Q Q Q Q Q Q Q Q Q Q Q Q Q Q Q Q Q Q y 8 z.;.;.;.;.X.Q Q Q Q Q Q Q Q Q Q Q Q Q Q Q Q Q Q Q Q Q Q Q Q Q Q Q Q Q ",
"Q Q Q Q Q Q Q Q Q Q Q Q Q Q Q Q Q Q Q Q Q Q Q Q Q Q Q 8 j.:.;.;.;.;.;.b Q Q Q Q Q Q Q Q Q Q Q Q Q Q Q Q Q Q Q Q Q Q Q Q Q Q Q Q ",
"Q Q Q Q Q Q Q Q Q Q Q Q Q Q Q Q Q Q Q Q Q Q Q Q Q Q 0  .n.5.;.;.;.;.;.9 Q Q Q Q Q Q Q Q Q Q Q Q Q Q Q Q Q Q Q Q Q Q Q Q Q Q Q Q ",
"Q Q Q Q Q Q Q Q Q Q Q Q Q Q Q Q Q Q Q Q Q Q Q Q Q Q j n.n.4.;.;.;.;.;.u Q Q Q Q Q Q Q Q Q Q Q Q Q Q Q Q Q Q Q Q Q Q Q Q Q Q Q Q ",
"Q Q Q Q Q Q Q Q Q Q Q Q Q Q Q Q Q Q Q Q Q Q Q Q Q , | v.b.:.;.;.;.;.;.I Q Q Q Q Q Q Q Q Q Q Q Q Q Q Q Q Q Q Q Q Q Q Q Q Q Q Q Q ",
"Q Q Q Q Q Q Q Q Q Q Q Q Q Q Q Q Q Q Q Q Q Q Q Q Q q 1.;.:.;.;.;.;.;.;.{ Q Q Q Q Q Q Q Q Q Q Q Q Q Q Q Q Q Q Q Q Q Q Q Q Q Q Q Q ",
"Q Q Q Q Q Q Q Q Q Q Q Q Q Q Q Q Q Q Q Q Q Q Q Q Q ] 2.;.;.;.;.;.;.;.;.X.Q Q Q Q Q Q Q Q Q Q Q Q Q Q Q Q Q Q Q Q Q Q Q Q Q Q Q Q ",
"Q Q Q Q Q Q Q Q Q Q Q Q Q Q Q Q Q Q Q Q Q Q Q Q r | ;.;.;.;.;.;.;.;.;.@.Q Q Q Q Q Q Q Q Q Q Q Q Q Q Q Q Q Q Q Q Q Q Q Q Q Q Q Q ",
"Q Q Q Q Q Q Q Q Q Q Q Q Q Q Q Q Q Q Q Q Q Q Q Q - ,.;.;.;.;.;.;.;.;.;.#.Q Q Q Q Q Q Q Q Q Q Q Q Q Q Q Q Q Q Q Q Q Q Q Q Q Q Q Q ",
"Q Q Q Q Q Q Q Q Q Q Q Q Q Q Q Q Q Q Q Q Q Q Q Q * 3.;.;.;.;.;.;.;.;.;.*.Q Q Q Q Q Q Q Q Q Q Q Q Q Q Q Q Q Q Q Q Q Q Q Q Q Q Q Q ",
"Q Q Q Q Q Q Q Q Q Q Q Q Q Q Q Q Q Q Q Q Q Q Q Q ; &.;.;.;.;.;.;.;.;.;.+.Q Q Q Q Q Q Q Q Q Q Q Q Q Q Q Q Q Q Q Q Q Q Q Q Q Q Q Q ",
"Q Q Q Q Q Q Q Q Q Q Q Q Q Q Q Q Q Q Q Q Q Q Q Q * ' O.;.;.;.;.;.;.;.;.R Q Q Q Q Q Q Q Q Q Q Q Q Q Q Q Q Q Q Q Q Q Q Q Q Q Q Q Q ",
"Q Q Q Q Q Q Q Q Q Q Q Q Q Q Q Q Q Q Q Q Q Q Q Q - ` T $.;.;.;.;.;.;.;.J Q Q Q Q Q Q Q Q Q Q Q Q Q Q Q Q Q Q Q Q Q Q Q Q Q Q Q Q ",
"Q Q Q Q Q Q Q Q Q Q Q Q Q Q Q Q Q Q Q Q Q Q Q Q 0 L U T o.-.;.;.;.;...H Q Q Q Q Q Q Q Q Q Q Q Q Q Q Q Q Q Q Q Q Q Q Q Q Q Q Q Q ",
"Q Q Q Q Q Q Q Q Q Q Q Q Q Q Q Q Q Q Q Q Q Q Q Q b w U U U W -.;.;.=.U G Q Q Q Q Q Q Q Q Q Q Q Q Q Q Q Q Q Q Q Q Q Q Q Q Q Q Q Q ",
"Q Q Q Q Q Q Q Q Q Q Q Q Q Q Q Q Q Q Q Q Q Q Q Q Q : U U U U U Y E U U e Q Q Q Q Q Q Q Q Q Q Q Q Q Q Q Q Q Q Q Q Q Q Q Q Q Q Q Q ",
"Q Q Q Q Q Q Q Q Q Q Q Q Q Q Q Q Q Q Q Q Q Q Q Q Q - G U U U U U U U U 5 Q Q Q Q Q Q Q Q Q Q Q Q Q Q Q Q Q Q Q Q Q Q Q Q Q Q Q Q ",
"Q Q Q Q Q Q Q Q Q Q Q Q Q Q Q Q Q Q Q Q Q Q Q Q Q y = U U U U U U U U : Q Q Q Q Q Q Q Q Q Q Q Q Q Q Q Q Q Q Q Q Q Q Q Q Q Q Q Q ",
"Q Q Q Q Q Q Q Q Q Q Q Q Q Q Q Q Q Q Q Q Q Q Q Q Q Q 6 G U U U J H U U y Q Q Q Q Q Q Q Q Q Q Q Q Q Q Q Q Q Q Q Q Q Q Q Q Q Q Q Q ",
"Q Q Q Q Q Q Q Q Q Q Q Q Q Q Q Q Q Q Q Q Q Q Q Q Q Q Q % K U U J < U K Q Q Q Q Q Q Q Q Q Q Q Q Q Q Q Q Q Q Q Q Q Q Q Q Q Q Q Q Q ",
"Q Q Q Q Q Q Q Q Q Q Q Q Q Q Q Q Q Q Q Q Q Q Q Q Q Q Q t O U U K + U > Q Q Q Q Q Q Q Q Q Q Q Q Q Q Q Q Q Q Q Q Q Q Q Q Q Q Q Q Q ",
"Q Q Q Q Q Q Q Q Q Q Q Q Q Q Q Q Q Q Q Q Q Q Q Q Q Q Q Q r o > 0 @ < 9 Q Q Q Q Q Q Q Q Q Q Q Q Q Q Q Q Q Q Q Q Q Q Q Q Q Q Q Q Q ",
"Q Q Q Q Q Q Q Q Q Q Q Q Q Q Q Q Q Q Q Q Q Q Q Q Q Q 0 h 6.p.N.A.A.S Q Q Q Q Q Q Q Q Q Q Q Q Q Q Q Q Q Q Q Q Q Q Q Q Q Q Q Q Q Q ",
"Q Q Q Q Q Q Q Q Q Q Q Q Q Q Q Q Q Q Q Q Q Q Q Q 0 B p.L.P.P.P.P.P.P.L.( b Q Q Q Q Q Q Q Q Q Q Q Q Q Q Q Q Q Q Q Q Q Q Q Q Q Q Q ",
"Q Q Q Q Q Q Q Q Q Q Q Q Q Q Q Q Q Q Q Q Q Q Q ; 7.L.P.P.P.P.P.P.P.P.P.L.g Q Q Q Q Q Q Q Q Q Q Q Q Q Q Q Q Q Q Q Q Q Q Q Q Q Q Q ",
"Q Q Q Q Q Q Q Q Q Q Q Q Q Q Q Q Q Q Q Q Q Q 4 a.P.P.P.P.P.P.P.P.P.P.P.P.k.t Q Q Q Q Q Q Q Q Q Q Q Q Q Q Q Q Q Q Q Q Q Q Q Q Q Q ",
"Q Q Q Q Q Q Q Q Q Q Q Q Q Q Q Q Q Q Q Q Q 4 N.P.P.P.P.P.P.P.P.P.P.P.P.P.P.~ Q Q Q Q Q Q Q Q Q Q Q Q Q Q Q Q Q Q Q Q Q Q Q Q Q Q ",
"Q Q Q Q Q Q Q Q Q Q Q Q Q Q Q Q Q Q Q Q 3 p.P.P.P.P.P.P.P.P.P.P.P.P.P.P.P.i.b Q Q Q Q Q Q Q Q Q Q Q Q Q Q Q Q Q Q Q Q Q Q Q Q Q ",
"Q Q Q Q Q Q Q Q Q Q Q Q Q Q Q Q Q Q Q 0 t.P.P.P.P.P.P.P.P.P.P.P.P.P.P.P.P.L.d Q Q Q Q Q Q Q Q Q Q Q Q Q Q Q Q Q Q Q Q Q Q Q Q Q ",
"Q Q Q Q Q Q Q Q Q Q Q Q Q Q Q Q Q Q Q s P.P.P.P.P.P.P.P.P.P.P.P.P.P.P.P.P.P._ Q Q Q Q Q Q Q Q Q Q Q Q Q Q Q Q Q Q Q Q Q Q Q Q Q ",
"Q Q Q Q Q Q Q Q Q Q Q Q Q Q Q Q Q Q 6 y.P.P.P.P.P.P.P.P.P.P.P.P.P.P.P.P.P.P.u.Q Q Q Q Q Q Q Q Q Q Q Q Q Q Q Q Q Q Q Q Q Q Q Q Q ",
"Q Q Q Q Q Q Q Q Q Q Q Q Q Q Q Q Q Q p J.X . F P.P.P.P.P.P.P.P.P.P.P.P.P.P.P.m.t Q Q Q Q Q Q Q Q Q Q Q Q Q Q Q Q Q Q Q Q Q Q Q Q ",
"Q Q Q Q Q Q Q Q Q Q Q Q Q Q Q Q Q y 8.N.    i P.P.P.P.P.P.P.P.P.P.P.P.P.P.P.J.t Q Q Q Q Q Q Q Q Q Q Q Q Q Q Q Q Q Q Q Q Q Q Q Q ",
"Q Q Q Q Q Q Q Q Q Q Q Q Q Q Q Q Q 6 M.J.D Z A.P.P.P.P.P.P.P.P.P.P.P.P.P.P.P.H.m Q Q Q Q Q Q Q Q Q Q Q Q Q Q Q Q Q Q Q Q Q Q Q Q ",
"Q Q Q Q Q Q Q Q Q Q Q Q Q Q Q Q Q 7 S.P.P.P.P.P.P.P.P.P.P.P.P.P.P.P.P.P.P.P.D.! Q Q Q Q Q Q Q Q Q Q Q Q Q Q Q Q Q Q Q Q Q Q Q Q ",
"Q Q Q Q Q Q Q Q Q Q Q Q Q Q Q Q Q h P.P.P.P.P.P.P.P.P.P.P.P.P.P.P.P.P.P.P.P.D.~ b Q Q Q Q Q Q Q Q Q Q Q Q Q Q Q Q Q Q Q Q Q Q Q ",
"Q Q Q Q Q Q Q Q Q Q Q Q Q Q Q Q Q & P.P.P.P.P.P.P.P.P.P.P.P.P.P.P.P.P.P.P.P.K.^ Q Q Q Q Q Q Q Q Q Q Q Q Q Q Q Q Q Q Q Q Q Q Q Q ",
"Q Q Q Q Q Q Q Q Q Q Q Q Q Q Q Q Q # P.P.P.P.2 $ A P.P.P.P.P.P.P.P.P.P.P.P.P.L.^ Q Q Q Q Q Q Q Q Q Q Q Q Q Q Q Q Q Q Q Q Q Q Q Q ",
"Q Q Q Q Q Q Q Q Q Q Q Q Q Q Q Q Q # P.P.P.P.B J.P.P.P.P.P.P.P.P.P.P.P.P.P.P.P.^ Q Q Q Q Q Q Q Q Q Q Q Q Q Q Q Q Q Q Q Q Q Q Q Q ",
"Q Q Q Q Q Q Q Q Q Q Q Q Q Q Q Q Q # P.P.P.P.( P.P.P.P.P.P.P.P.P.P.P.P.P.P.P.L.^ Q Q Q Q Q Q Q Q Q Q Q Q Q Q Q Q Q Q Q Q Q Q Q Q ",
"Q Q Q Q Q Q Q Q Q Q Q Q Q Q Q Q Q * P.P.P.P.0.V.L.P.P.P.P.P.P.P.P.P.P.P.P.P.D.~ Q Q Q Q Q Q Q Q Q Q Q Q Q Q Q Q Q Q Q Q Q Q Q Q ",
"Q Q Q Q Q Q Q Q Q Q Q Q Q Q Q Q Q 6 S.P.P.P.P.6.d.P.P.P.P.P.P.P.P.P.P.P.P.P.V.m Q Q Q Q Q Q Q Q Q Q Q Q Q Q Q Q Q Q Q Q Q Q Q Q ",
"Q Q Q Q Q Q Q Q Q Q Q Q Q Q Q Q Q t 2 G.P.P.P.L.F.P.P.P.P.P.P.P.P.P.P.P.P.D.c.c Q Q Q Q Q Q Q Q Q Q Q Q Q Q Q Q Q Q Q Q Q Q Q Q ",
"Q Q Q Q Q Q Q Q Q Q Q Q Q Q Q Q Q Q # l.c.L.P.P.P.P.P.P.P.P.P.P.P.P.P.P.H.c.l.t Q Q Q Q Q Q Q Q Q Q Q Q Q Q Q Q Q Q Q Q Q Q Q Q ",
"Q Q Q Q Q Q Q Q Q Q Q Q Q Q Q Q Q Q 6 9.c.c.L.D.F.P.P.P.P.P.P.P.P.P.K.C.c.c.f.t Q Q Q Q Q Q Q Q Q Q Q Q Q Q Q Q Q Q Q Q Q Q Q Q ",
"Q Q Q Q Q Q Q Q Q Q Q Q Q Q Q Q Q Q Q h c.c.c.c.c.Z.D.L.P.P.P.P.K.C.c.c.c.c.w.y Q Q Q Q Q Q Q Q Q Q Q Q Q Q Q Q Q Q Q Q Q Q Q Q ",
"Q Q Q Q Q Q Q Q Q Q Q Q Q Q Q Q Q Q Q - f.c.c.c.c.c.c.c.c.V.B.c.c.c.c.c.c.c.} Q Q Q Q Q Q Q Q Q Q Q Q Q Q Q Q Q Q Q Q Q Q Q Q Q ",
"Q Q Q Q Q Q Q Q Q Q Q Q Q Q Q Q Q Q Q y ^ x.c.c.c.c.c.c.c.c.c.c.c.c.c.c.c.c.) Q Q Q Q Q Q Q Q Q Q Q Q Q Q Q Q Q Q Q Q Q Q Q Q Q ",
"Q Q Q Q Q Q Q Q Q Q Q Q Q Q Q Q Q Q Q Q ; s.c.c.c.c.c.c.c.c.c.c.c.c.c.c.c.c.m Q Q Q Q Q Q Q Q Q Q Q Q Q Q Q Q Q Q Q Q Q Q Q Q Q ",
"Q Q Q Q Q Q Q Q Q Q Q Q Q Q Q Q Q Q Q Q r S c.c.c.c.c.c.c.c.c.c.c.c.c.c.c.g.0 Q Q Q Q Q Q Q Q Q Q Q Q Q Q Q Q Q Q Q Q Q Q Q Q Q ",
"Q Q Q Q Q Q Q Q Q Q Q Q Q Q Q Q Q Q Q Q Q 3 d.c.c.c.c.c.c.c.c.c.c.c.c.c.c._ Q Q Q Q Q Q Q Q Q Q Q Q Q Q Q Q Q Q Q Q Q Q Q Q Q Q ",
"Q Q Q Q Q Q Q Q Q Q Q Q Q Q Q Q Q Q Q Q Q y N x.c.c.c.c.c.c.c.c.c.c.c.c.x.c Q Q Q Q Q Q Q Q Q Q Q Q Q Q Q Q Q Q Q Q Q Q Q Q Q Q ",
"Q Q Q Q Q Q Q Q Q Q Q Q Q Q Q Q Q Q Q Q Q Q 6 9.c.c.c.c.c.r.[ q.w.9.s.c.r.t Q Q Q Q Q Q Q Q Q Q Q Q Q Q Q Q Q Q Q Q Q Q Q Q Q Q ",
"Q Q Q Q Q Q Q Q Q Q Q Q Q Q Q Q Q Q Q Q Q Q Q ; e.c.c.c.c.q., v f / l.g.$ n n b Q Q Q Q Q Q Q Q Q Q Q Q Q Q Q Q Q Q Q Q Q Q Q Q ",
"Q Q Q Q Q Q Q Q Q Q Q Q Q Q Q Q Q Q Q Q b b n n 2 d.c.c.c.( f v f / l.g.$ n n b Q Q Q Q Q Q Q Q Q Q Q Q Q Q Q Q Q Q Q Q Q Q Q Q ",
"Q Q Q Q Q Q Q Q Q Q Q Q Q Q Q Q Q b M z z k k k k 1 x S x i k k k a C p k k k k z l M Q Q Q b Q Q Q Q Q Q Q Q Q Q Q Q Q Q Q Q Q ",
"Q Q Q Q Q Q Q Q Q Q Q Q Q Q Q Q Q Q Q Q Q Q Q Q Q Q Q Q Q Q Q Q Q Q Q Q Q Q Q Q Q Q Q Q Q Q Q Q Q Q Q Q Q Q Q Q Q Q Q Q Q Q Q Q ",
"Q Q Q Q Q Q Q Q Q Q Q Q Q Q Q Q Q Q Q Q Q Q Q Q Q Q Q Q Q Q Q Q Q Q Q Q Q Q Q Q Q Q Q Q Q Q Q Q Q Q Q Q Q Q Q Q Q Q Q Q Q Q Q Q ",
"Q Q Q Q Q Q Q Q Q Q Q Q Q Q Q Q Q Q Q Q Q Q Q Q Q Q Q Q Q Q Q Q Q Q Q Q Q Q Q Q Q Q Q Q Q Q Q Q Q Q Q Q Q Q Q Q Q Q Q Q Q Q Q Q "
};
