/* XPM */
static char *_4422417f6ea46c08f705aa4f24b6eb1IqqaaNAhUiUMtN0J[] = {
/* columns rows colors chars-per-pixel */
"64 64 181 2 ",
"   c #010101",
".  c #0C0C0C",
"X  c #161616",
"o  c gray23",
"O  c #162343",
"+  c #1F2D52",
"@  c #1C305F",
"#  c #232E4C",
"$  c #283044",
"%  c #2D354B",
"&  c #23314A",
"*  c #393F4F",
"=  c #202E52",
"-  c #243255",
";  c #2D3955",
":  c #2D3B5B",
">  c #273958",
",  c #313D5B",
"<  c #393F52",
"1  c #2C3F60",
"2  c #25396A",
"3  c #243868",
"4  c #313E61",
"5  c #263F7D",
"6  c #233C77",
"7  c #433D46",
"8  c #3C4153",
"9  c #34425F",
"0  c #3D465D",
"q  c #2C496A",
"w  c #344165",
"e  c #3C4661",
"r  c #3B4C62",
"t  c #36446B",
"y  c #38466E",
"u  c #3D5367",
"i  c #2E4772",
"p  c #384771",
"a  c #3A4974",
"s  c #3E4E7B",
"d  c #2F577A",
"f  c #2F5C7E",
"g  c #3F507E",
"h  c #49474B",
"j  c #464A59",
"k  c #5B5B5B",
"l  c #5A505B",
"z  c #454E62",
"x  c #494F60",
"c  c #494D6B",
"v  c #4B5265",
"b  c #4A546B",
"n  c #495A6D",
"m  c #5E5462",
"M  c #585469",
"N  c #565969",
"B  c #4D5374",
"V  c #43517E",
"C  c #49527A",
"Z  c #535D72",
"A  c #525370",
"S  c #5D626F",
"D  c #4B6874",
"F  c #586379",
"G  c #636363",
"H  c gray43",
"J  c #67696D",
"K  c #656870",
"L  c #646D7D",
"P  c #717171",
"I  c #2B4481",
"U  c #2A488F",
"Y  c #274385",
"T  c #2F5F81",
"R  c #2C4B95",
"E  c #2E4E9B",
"W  c #385890",
"Q  c #3153A5",
"!  c #355DAE",
"~  c #3357A9",
"^  c #3B7CA7",
"/  c #3868B7",
"(  c #3763B2",
")  c #3B70BD",
"_  c #3568A7",
"`  c #415282",
"'  c #577B85",
"]  c #697386",
"[  c #6A7689",
"{  c #737A87",
"}  c #727D91",
"|  c #436AAD",
" . c #4771B6",
".. c #3E76C3",
"X. c #3C82AF",
"o. c #3F89B9",
"O. c #598692",
"+. c #7C889D",
"@. c #79859A",
"#. c #68A4BA",
"$. c #79ACB3",
"%. c #4284CE",
"&. c #428EC0",
"*. c #4599CD",
"=. c #448AD4",
"-. c #4998DF",
";. c #4895DD",
":. c #4BA5DE",
">. c #4A9BE2",
",. c #4DA9E2",
"<. c #4EA6EB",
"1. c #4EA7E8",
"2. c #5CAAE5",
"3. c #51AEF2",
"4. c #53B7F6",
"5. c #56BDFF",
"6. c #59BFFF",
"7. c #54B7FA",
"8. c #5BC0FF",
"9. c #6EC2EA",
"0. c #7AC8E7",
"q. c #73C8EE",
"w. c #6FCEFF",
"e. c #62C5FF",
"r. c #7BD5FD",
"t. c #74D1FF",
"y. c #838383",
"u. c #87888C",
"i. c #8C8D90",
"p. c #959799",
"a. c #818CA2",
"s. c #8591A5",
"d. c #8793A8",
"f. c #8B98AE",
"g. c #8A97AE",
"h. c #919FB5",
"j. c #9FA0A2",
"k. c #96A4BB",
"l. c #98A7BE",
"z. c #93A1B7",
"x. c #AEAEAF",
"c. c #A4A5A7",
"v. c #AFB1B5",
"b. c #B3B3B5",
"n. c #B7B7B9",
"m. c #BCBCBD",
"M. c #9BA9C1",
"N. c #A1AFC8",
"B. c #A3B2CB",
"V. c #A3B1C6",
"C. c #A7B6D0",
"Z. c #ABBBD5",
"A. c #AFBFDA",
"S. c #80C4D5",
"D. c #8FD3DF",
"F. c #B2C2DD",
"G. c #83D6F4",
"H. c #B6C7E2",
"J. c #B7C8E4",
"K. c #B8C9E5",
"L. c #93E5FF",
"P. c #A0EEFF",
"I. c #ACF5FD",
"U. c #CECECE",
"Y. c #C1C1C1",
"T. c #D5D5D5",
"R. c #DBDBDB",
"E. c #C0CFE8",
"W. c #C3D1E9",
"Q. c #C9D5E9",
"!. c #D0DBEE",
"~. c #DCE5F2",
"^. c #E3E3E3",
"/. c gray93",
"(. c #E2EAF5",
"). c #E9EEF7",
"_. c #ECF1F9",
"`. c #F3F3F3",
"'. c #F3F5FB",
"]. c #FFFFFF",
"[. c #F7F9FC",
/* pixels */
"` ` ` ` ` ` ` ` ` ` ` ` ` ` ` ` ` ` ` ` ` ` ` ` ` ` ` ` ` ` ` ` ` ` ` ` ` ` ` ` ` ` ` ` ` ` ` ` ` ` ` ` ` ` ` ` ` ` ` ` ` ` ` ` ",
"` ` ` ` ` ` ` ` ` ` ` ` ` ` ` ` ` ` ` ` ` ` ` ` ` ` ` ` ` ` ` ` 9 ' 9 ` ` ` ` ` ` ` ` ` ` ` ` ` ` ` ` ` ` ` ` ` ` ` ` ` ` ` ` ` ",
"` ` ` ` ` ` ` ` ` ` ` ` ` ` ` ` ` ` ` ` ` ` ` ` ` ` ` ` ` ` s r S.w.,.> s ` ` ` ` ` ` ` ` ` ` ` ` ` ` ` ` ` ` ` ` ` ` ` ` ` ` ` ",
"` ` ` ` ` ` ` ` ` ` ` ` ` ` ` ` ` ` ` ` ` ` ` ` ` ` ` ` ` a D 0.8.5.5.1.q g ` ` ` ` ` ` ` ` ` ` ` ` ` ` ` ` ` ` ` ` ` ` ` ` ` ` ",
"` ` ` ` ` ` ` ` ` ` ` ` ` ` ` ` ` ` ` ` ` ` ` ` ` ` ` ` s D r.6.5.5.5.5.:.: ` ` ` ` ` ` ` ` ` ` ` ` ` ` ` ` ` ` ` ` ` ` ` ` ` ` ",
"` ` ` ` ` ` ` ` ` ` ` ` ` ` ` ` ` ` ` ` ` ` ` ` ` ` ` s r G.5.5.5.5.5.5.5.X.w ` ` ` ` ` ` ` ` ` ` ` ` ` ` ` ` ` ` ` ` ` ` ` ` ` ",
"` ` ` ` ` ` ` ` ` ` ` ` ` ` ` ` ` ` ` ` ` ` ` ` ` ` ` r D.6.5.5.5.5.5.5.5.5.T V ` ` ` ` ` ` ` ` ` ` ` ` ` ` ` ` ` ` ` ` ` ` ` ` ",
"` ` ` ` ` ` ` ` ` ` ` ` ` ` ` ` ` ` ` ` ` ` ` ` ` ` y $.I.r.5.5.5.5.5.5.5.5.,.: ` ` ` ` ` ` ` ` ` ` ` ` ` ` ` ` ` ` ` ` ` ` ` ` ",
"` ` ` ` ` ` ` ` ` ` ` ` ` ` ` ` ` ` ` ` ` ` ` ` ` ` n I.I.t.5.5.5.5.5.5.5.5.5.d ` ` ` ` ` ` ` ` ` ` ` ` ` ` ` ` ` ` ` ` ` ` ` ` ",
"` ` ` ` ` ` ` ` ` ` ` ` ` ` ` ` ` ` ` ` ` ` ` ` ` 4 #.L.P.6.5.5.5.5.5.5.5.5.5.o.w ` ` ` ` ` ` ` ` ` ` ` ` ` ` ` ` ` ` ` ` ` ` ` ",
"` ` ` ` ` ` ` ` ` ` ` ` ` ` ` ` ` ` ` ` ` ` ` ` ` u q.5.6.5.5.5.5.5.5.5.5.5.5.4.& ` ` ` ` ` ` ` ` ` ` ` ` ` ` ` ` ` ` ` ` ` ` ` ",
"` ` ` ` ` ` ` ` ` ` ` ` ` ` ` ` ` ` ` ` ` ` ` ` ` O.e.5.5.5.5.5.5.5.5.5.5.5.5.5.f ` ` ` ` ` ` ` ` ` ` ` ` ` ` ` ` ` ` ` ` ` ` ` ",
"` ` ` ` ` ` ` ` ` ` ` ` ` ` ` ` ` ` ` ` ` ` ` ` p #.5.5.5.5.5.5.5.5.5.5.5.5.5.5.^ s ` ` ` ` ` ` ` ` ` ` ` ` ` ` ` ` ` ` ` ` ` ` ",
"` ` ` ` ` ` ` ` ` ` ` ` ` ` ` ` ` ` ` ` ` ` ` ` : 9.5.5.5.5.5.5.5.5.5.5.5.5.5.5.&.y ` ` ` ` ` ` ` ` ` ` ` ` ` ` ` ` ` ` ` ` ` ` ",
"` ` ` ` ` ` ` ` ` ` ` ` ` ` ` ` ` ` ` ` ` ` ` ` ; w.5.5.5.5.5.5.5.7.5.5.5.5.5.5.*.w ` ` ` ` ` ` ` ` ` ` ` ` ` ` ` ` ` ` ` ` ` ` ",
"` ` ` ` ` ` ` ` ` ` ` ` ` ` ` ` ` ` ` ` ` ` ` ` , 2.5.5.5.5.5.5.3.7.5.5.5.5.5.7._ w ` ` ` ` ` ` ` ` ` ` ` ` ` ` ` ` ` ` ` ` ` ` ",
"` ` ` ` ` ` ` ` ` ` ` ` ` ` ` ` ` ` ` ` ` ` ` ` ;  .;.5.5.5.5.5.-.5.5.5.5.5.5...Y w ` ` ` ` ` ` ` ` ` ` ` ` ` ` ` ` ` ` ` ` ` ` ",
"` ` ` ` ` ` ` ` ` ` ` ` ` ` ` ` ` ` ` ` ` ` ` ` : | ! <.5.5.5.5.=.5.5.5.5.7.%.Q 5 p ` ` ` ` ` ` ` ` ` ` ` ` ` ` ` ` ` ` ` ` ` ` ",
"` ` ` ` ` ` ` ` ` ` ` ` ` ` ` ` ` ` ` ` ` ` ` ` y W Q ! =.7.5.3.%.5.5.5.1./ Q Q 2 s ` ` ` ` ` ` ` ` ` ` ` ` ` ` ` ` ` ` ` ` ` ` ",
"` ` ` ` ` ` ` ` ` ` ` ` ` ` ` ` ` ` ` ` ` ` ` ` V i Q Q Q ) 3.>.=.5.<...Q Q Q Q = ` ` ` ` ` ` ` ` ` ` ` ` ` ` ` ` ` ` ` ` ` ` ` ",
"` ` ` ` ` ` ` ` ` ` ` ` ` ` ` ` ` ` ` ` ` ` ` ` ` 1 Q Q Q Q Q ~ ( ! Q Q Q Q Q R # ` ` ` ` ` ` ` ` ` ` ` ` ` ` ` ` ` ` ` ` ` ` ` ",
"` ` ` ` ` ` ` ` ` ` ` ` ` ` ` ` ` ` ` ` ` ` ` ` ` : I Q Q Q Q Q Q Q Q Q Q Q Q 3 s ` ` ` ` ` ` ` ` ` ` ` ` ` ` ` ` ` ` ` ` ` ` ` ",
"` ` ` ` ` ` ` ` ` ` ` ` ` ` ` ` ` ` ` ` ` ` ` ` ` s > Q Q Q Q Q Q Q Q Q Q Q Q - ` ` ` ` ` ` ` ` ` ` ` ` ` ` ` ` ` ` ` ` ` ` ` ` ",
"` ` ` ` ` ` ` ` ` ` ` ` ` ` ` ` ` ` ` ` ` ` ` ` ` ` w I Q Q Q R U Q Q Q Q Q 3 a ` ` ` ` ` ` ` ` ` ` ` ` ` ` ` ` ` ` ` ` ` ` ` ` ",
"` ` ` ` ` ` ` ` ` ` ` ` ` ` ` ` ` ` ` ` ` ` ` ` ` ` ` - E Q Q R 6 Q Q Q Q R - ` ` ` ` ` ` ` ` ` ` ` ` ` ` ` ` ` ` ` ` ` ` ` ` ` ",
"` ` ` ` ` ` ` ` ` ` ` ` ` ` ` ` ` ` ` ` ` ` ` ` ` ` ` a + Q Q E @ Q Q Q E # V ` ` ` ` ` ` ` ` ` ` ` ` ` ` ` ` ` ` ` ` ` ` ` ` ` ",
"` ` ` ` ` ` ` ` ` ` ` ` ` ` ` ` ` ` ` ` ` ` ` ` ` ` ` ` p O 2 y $ 2 5 R - s ` ` ` ` ` ` ` ` ` ` ` ` ` ` ` ` ` ` ` ` ` ` ` ` ` ` ",
"` ` ` ` ` ` ` ` ` ` ` ` ` ` ` ` ` ` ` ` ` ` ` ` ` ` y v y.n.R.^.^.T.v.{ 0 p ` ` ` ` ` ` ` ` ` ` ` ` ` ` ` ` ` ` ` ` ` ` ` ` ` ` ",
"` ` ` ` ` ` ` ` ` ` ` ` ` ` ` ` ` ` ` ` ` ` ` ` y S n.[.].].].].].].].].`.c.z s ` ` ` ` ` ` ` ` ` ` ` ` ` ` ` ` ` ` ` ` ` ` ` ` ",
"` ` ` ` ` ` ` ` ` ` ` ` ` ` ` ` ` ` ` ` ` ` ` , i.[.].].].].].].].].].].].].`.N p ` ` ` ` ` ` ` ` ` ` ` ` ` ` ` ` ` ` ` ` ` ` ` ",
"` ` ` ` ` ` ` ` ` ` ` ` ` ` ` ` ` ` ` ` ` ` 0 m.].].].].].].].].].].].].].].].[.u.t ` ` ` ` ` ` ` ` ` ` ` ` ` ` ` ` ` ` ` ` ` ` ",
"` ` ` ` ` ` ` ` ` ` ` ` ` ` ` ` ` ` ` ` ` 0 R.].].].].].].].].].].].].].].].].].].p.t ` ` ` ` ` ` ` ` ` ` ` ` ` ` ` ` ` ` ` ` ` ",
"` ` ` ` ` ` ` ` ` ` ` ` ` ` ` ` ` ` ` ` 9 b.].].].].].].].].].].].].].].].].].].].`.K s ` ` ` ` ` ` ` ` ` ` ` ` ` ` ` ` ` ` ` ` ",
"` ` ` ` ` ` ` ` ` ` ` ` ` ` ` ` ` ` ` y c.].].].].].].].].].].].].].].].].].].].].].`.j ` ` ` ` ` ` ` ` ` ` ` ` ` ` ` ` ` ` ` ` ",
"` ` ` ` ` ` ` ` ` ` ` ` ` ` ` ` ` ` ` x ].].].].].].].].].].].].].].].].].].].].].].].x.p ` ` ` ` ` ` ` ` ` ` ` ` ` ` ` ` ` ` ` ",
"` ` ` ` ` ` ` ` ` ` ` ` ` ` ` ` ` ` w x.].].].].].].].].].].].].].].].].].].].].].].].].z ` ` ` ` ` ` ` ` ` ` ` ` ` ` ` ` ` ` ` ",
"` ` ` ` ` ` ` ` ` ` ` ` ` ` ` ` ` ` j ].].].].].].b.y.^.].].].].].].].].R.y.m.].].].].].j.w ` ` ` ` ` ` ` ` ` ` ` ` ` ` ` ` ` ` ",
"` ` ` ` ` ` ` ` ` ` ` ` ` ` ` ` ` s p.].].].].].^..   k ].].].].].].].].h   X `.].].].].^.e ` ` ` ` ` ` ` ` ` ` ` ` ` ` ` ` ` ` ",
"` ` ` ` ` ` ` ` ` ` ` ` ` ` ` ` ` w T.].].].].].R.    h ].].].].].].].].o   . /.].].].].~.F ` ` ` ` ` ` ` ` ` ` ` ` ` ` ` ` ` ` ",
"` ` ` ` ` ` ` ` ` ` ` ` ` ` ` ` ` e /.].].].].].].i.k U.U.G G G G G G R.Y.k p.].].].].].W.@.a ` ` ` ` ` ` ` ` ` ` ` ` ` ` ` ` ` ",
"` ` ` ` ` ` ` ` ` ` ` ` ` ` ` ` ` v ].].].].].].].].].].T.H H H H H P ^.].].].].].].].).K.l.% b w ` ` ` ` ` ` ` ` ` ` ` ` ` ` ` ",
"` ` ` ` ` ` ` ` ` ` ` ` ` ` ` p * J ].].].].].].].].].].].].].].].].].].].].].].].].].Q.K.J.H.K.F ` ` ` ` ` ` ` ` ` ` ` ` ` ` ` ",
"` ` ` ` ` ` ` ` ` ` ` ` ` ` ` S `.].].].].].].].].].].].].].].].].].].].].].].].].].).K.K.K.K.H.e ` ` ` ` ` ` ` ` ` ` ` ` ` ` ` ",
"` ` ` ` ` ` ` ` ` ` ` ` ` ` ` { ].].].].].].].].].].].].].].].].].].].].].].].].].'.K.K.K.K.H.] p ` ` ` ` ` ` ` ` ` ` ` ` ` ` ` ",
"` ` ` ` ` ` ` ` ` ` ` ` ` ` ` 0 W.[.].].].].].].].].].].].].].].].].].].].].].].].!.K.K.K.K.g.: ` ` ` ` ` ` ` ` ` ` ` ` ` ` ` ` ",
"` ` ` ` ` ` ` ` ` ` ` ` ` ` ` s 8 V.~.'.].].].].].].].].].].].].].].].].].].].].~.K.K.K.K.h., ` ` ` ` ` ` ` ` ` ` ` ` ` ` ` ` ` ",
"` ` ` ` ` ` ` ` ` ` ` ` ` ` ` ` ` ; N.K.K._.].].].].].].].].].].].].].].].].].~.K.K.K.K.K.Z ` ` ` ` ` ` ` ` ` ` ` ` ` ` ` ` ` ` ",
"` ` ` ` ` ` ` ` ` ` ` ` ` ` ` ` ` a } K.K.W.'.].].].].].].].].].].].].].].].~.K.K.K.K.K.K.b ` ` ` ` ` ` ` ` ` ` ` ` ` ` ` ` ` ` ",
"` ` ` ` ` ` ` ` ` ` ` ` ` ` ` ` ` ` % F.K.K.W._.].].].].].].].].].].].].'.!.K.K.K.K.K.K.A.e ` ` ` ` ` ` ` ` ` ` ` ` ` ` ` ` ` ` ",
"` ` ` ` ` ` ` ` ` ` ` ` ` ` ` ` ` ` w s.K.K.K.K.(.].].].].].].].].].].).W.K.K.K.K.K.K.K.z.w ` ` ` ` ` ` ` ` ` ` ` ` ` ` ` ` ` ` ",
"` ` ` ` ` ` ` ` ` ` ` ` ` ` ` ` ` ` ` b K.K.K.K.K.Q.(.[.].].].].'.~.W.K.K.K.K.K.K.K.K.K.] y ` ` ` ` ` ` ` ` ` ` ` ` ` ` ` ` ` ` ",
"` ` ` ` ` ` ` ` ` ` ` ` ` ` ` ` ` ` ` : B.K.K.K.K.K.K.K.K.W.E.K.K.K.K.K.K.K.K.K.K.K.K.K.z ` ` ` ` ` ` ` ` ` ` ` ` ` ` ` ` ` ` ` ",
"` ` ` ` ` ` ` ` ` ` ` ` ` ` ` ` ` ` ` s ] J.K.K.K.K.K.K.K.K.K.K.K.K.K.K.K.K.K.K.K.K.K.V., ` ` ` ` ` ` ` ` ` ` ` ` ` ` ` ` ` ` ` ",
"` ` ` ` ` ` ` ` ` ` ` ` ` ` ` ` ` ` ` ` , M.K.K.K.K.K.K.K.K.K.K.K.K.K.K.K.K.K.K.K.K.K.F V ` ` ` ` ` ` ` ` ` ` ` ` ` ` ` ` ` ` ` ",
"` ` ` ` ` ` ` ` ` ` ` ` ` ` ` ` ` ` ` ` p L K.K.K.K.K.K.K.K.K.K.K.K.K.K.K.K.K.K.K.K.V., ` ` ` ` ` ` ` ` ` ` ` ` ` ` ` ` ` ` ` ` ",
"` ` ` ` ` ` ` ` ` ` ` ` ` ` ` ` ` ` ` ` ` 9 V.K.K.K.K.K.K.K.K.K.K.K.K.K.K.K.K.K.K.Z.< ` ` ` ` ` ` ` ` ` ` ` ` ` ` ` ` ` ` ` ` ` ",
"` ` ` ` ` ` ` ` ` ` ` ` ` ` ` ` ` ` ` ` ` s Z J.K.K.K.K.K.K.K.K.K.K.K.K.K.K.K.K.H.b s ` ` ` ` ` ` ` ` ` ` ` ` ` ` ` ` ` ` ` ` ` ",
"` ` ` ` ` ` ` ` ` ` ` ` ` ` ` ` ` ` ` ` ` ` w s.K.K.K.K.K.k.+.g.h.f.+.d.K.K.K.K.} t ` ` ` ` ` ` ` ` ` ` ` ` ` ` ` ` ` ` ` ` ` ` ",
"` ` ` ` ` ` ` ` ` ` ` ` ` ` ` ` ` ` ` ` ` ` ` , z.K.K.K.K.f.4 y w y a v K.K.K.a., ` ` ` ` ` ` ` ` ` ` ` ` ` ` ` ` ` ` ` ` ` ` ` ",
"` ` ` ` ` ` ` ` ` ` ` ` ` ` ` ` ` ` ` ` V V C C 8 V.K.K.K.{ c B B B B 8 Z.K.C.* C C V V ` ` ` ` ` ` ` ` ` ` ` ` ` ` ` ` ` ` ` ` ",
"` ` ` ` ` ` ` ` ` ` ` ` ` ` ` ` ` V A M M m m m m 7 N L N h m m m m m l j L h m m m m M M A V ` ` ` ` ` ` ` ` ` ` ` ` ` ` ` ` ` ",
"` ` ` ` ` ` ` ` ` ` ` ` ` ` ` ` ` ` ` ` ` ` ` ` ` ` ` ` ` ` ` ` ` ` ` ` ` ` ` ` ` ` ` ` ` ` ` ` ` ` ` ` ` ` ` ` ` ` ` ` ` ` ` ` ",
"` ` ` ` ` ` ` ` ` ` ` ` ` ` ` ` ` ` ` ` ` ` ` ` ` ` ` ` ` ` ` ` ` ` ` ` ` ` ` ` ` ` ` ` ` ` ` ` ` ` ` ` ` ` ` ` ` ` ` ` ` ` ` ` ",
"` ` ` ` ` ` ` ` ` ` ` ` ` ` ` ` ` ` ` ` ` ` ` ` ` ` ` ` ` ` ` ` ` ` ` ` ` ` ` ` ` ` ` ` ` ` ` ` ` ` ` ` ` ` ` ` ` ` ` ` ` ` ` ` "
};
