/* XPM */
static char *_b631d02108b47ccf615d13b222ccfd72VJ8MEj25kEl2JAF[] = {
/* columns rows colors chars-per-pixel */
"64 64 162 2 ",
"   c #020202",
".  c gray3",
"X  c #313131",
"o  c #162343",
"O  c #1F2D52",
"+  c #1C305F",
"@  c #283044",
"#  c #2C354C",
"$  c #393F4F",
"%  c #243255",
"&  c #2D3750",
"*  c #2E3955",
"=  c #273958",
"-  c #2D3B5B",
";  c #313D5B",
":  c #2E3F63",
">  c #263A6A",
",  c #313E61",
"<  c #253D79",
"1  c #433D46",
"2  c #3A4154",
"3  c #34425F",
"4  c #3D465D",
"5  c #2E406F",
"6  c #344165",
"7  c #3C4661",
"8  c #3A4B63",
"9  c #34446C",
"0  c #38466E",
"q  c #3D5367",
"w  c #2E4772",
"e  c #29407A",
"r  c #384771",
"t  c #3B4B74",
"y  c #3E4E7A",
"u  c #36557D",
"i  c #4B4A4C",
"p  c #4A4C57",
"a  c #514D5A",
"s  c #494F60",
"d  c #444E6D",
"f  c #484E6B",
"g  c #47506D",
"h  c #4A536A",
"j  c #4A5669",
"k  c #5E5462",
"l  c #53536F",
"z  c #585469",
"x  c #565969",
"c  c #455275",
"v  c #4D5374",
"b  c #43517E",
"n  c #49527A",
"m  c #4C5A7C",
"M  c #525370",
"N  c #535D72",
"B  c #5D626F",
"V  c #4B6874",
"C  c #596070",
"Z  c gray39",
"A  c #67696D",
"S  c #646D7D",
"D  c #727272",
"F  c gray47",
"G  c #2B4483",
"H  c #2C498F",
"J  c #2C4B95",
"K  c #2E4E9B",
"L  c #385890",
"P  c #38638C",
"I  c #3B6E9A",
"U  c #3153A5",
"Y  c #3357A9",
"T  c #355DAE",
"R  c #3563AC",
"E  c #3763B2",
"W  c #3B70BD",
"Q  c #415282",
"!  c #5A6787",
"~  c #656E83",
"^  c #697286",
"/  c #6E788E",
"(  c #747A86",
")  c #6A7791",
"_  c #737C92",
"`  c #436AAD",
"'  c #4771B6",
"]  c #598692",
"[  c #7C889D",
"{  c #4185B6",
"}  c #7F8CA4",
"|  c #68A4BA",
" . c #79ACB3",
".. c #4080C9",
"X. c #4799CE",
"o. c #448AD4",
"O. c #4895DD",
"+. c #4899DB",
"@. c #4CA5DE",
"#. c #4FABE7",
"$. c #4EA6EB",
"%. c #51AEE6",
"&. c #5CAAE5",
"*. c #50B0EC",
"=. c #50AEF2",
"-. c #53B6F9",
";. c #56BDFF",
":. c #59BFFF",
">. c #5BC0FF",
",. c #6EC2EA",
"<. c #7AC8E7",
"1. c #73C8EE",
"2. c #62C5FF",
"3. c #6FCEFF",
"4. c #74D1FF",
"5. c #7BD5FD",
"6. c #838489",
"7. c #8C8D90",
"8. c #959799",
"9. c #8491A5",
"0. c #8D96A7",
"q. c #8A97AE",
"w. c #919FB6",
"e. c #93A1B7",
"r. c #96A4BB",
"t. c #A4A5A7",
"y. c #AEAEAF",
"u. c #A2A7B1",
"i. c #ACAEB2",
"p. c #B7B7B9",
"a. c #B8B8B9",
"s. c #9DACC4",
"d. c #A3B1C6",
"f. c #A5B4CD",
"g. c #ABBAD4",
"h. c #80C4D5",
"j. c #8FD3DF",
"k. c #BFC1C4",
"l. c #B3C4DF",
"z. c #83D6F4",
"x. c #B7C8E4",
"c. c #B8C9E5",
"v. c #93E5FF",
"b. c #A0EEFF",
"n. c #ACF5FD",
"m. c #CFD0D1",
"M. c #D5D5D5",
"N. c #DBDBDB",
"B. c #C0CFE8",
"V. c #C2D1E9",
"C. c #D2DDEF",
"Z. c #DEE5F2",
"A. c #E2E2E2",
"S. c #EDEEEE",
"D. c #E5EBF5",
"F. c #EBEFF4",
"G. c #ECF1F6",
"H. c #EDF1F9",
"J. c #F3F3F3",
"K. c #F3F6FB",
"L. c #F7F9FC",
"P. c #FFFFFF",
/* pixels */
"Q Q Q Q Q Q Q Q Q Q Q Q Q Q Q Q Q Q Q Q Q Q Q Q Q Q Q Q Q Q Q Q Q Q Q Q Q Q Q Q Q Q Q Q Q Q Q Q Q Q Q Q Q Q Q Q Q Q Q Q Q Q Q Q ",
"Q Q Q Q Q Q Q Q Q Q Q Q Q Q Q Q Q Q Q Q Q Q Q Q Q Q Q Q Q Q 8 3 Q Q Q Q Q Q Q Q Q Q Q Q Q Q Q Q Q Q Q Q Q Q Q Q Q Q Q Q Q Q Q Q ",
"Q Q Q Q Q Q Q Q Q Q Q Q Q Q Q Q Q Q Q Q Q Q Q Q Q Q Q Q Q b %.h.8 y Q Q Q Q Q Q Q Q Q Q Q Q Q Q Q Q Q Q Q Q Q Q Q Q Q Q Q Q Q Q ",
"Q Q Q Q Q Q Q Q Q Q Q Q Q Q Q Q Q Q Q Q Q Q Q Q Q Q Q Q Q t ;.>.<.V t Q Q Q Q Q Q Q Q Q Q Q Q Q Q Q Q Q Q Q Q Q Q Q Q Q Q Q Q Q ",
"Q Q Q Q Q Q Q Q Q Q Q Q Q Q Q Q Q Q Q Q Q Q Q Q Q Q Q Q Q P ;.;.:.5.V y Q Q Q Q Q Q Q Q Q Q Q Q Q Q Q Q Q Q Q Q Q Q Q Q Q Q Q Q ",
"Q Q Q Q Q Q Q Q Q Q Q Q Q Q Q Q Q Q Q Q Q Q Q Q Q Q Q Q Q X.;.;.;.;.z.8 y Q Q Q Q Q Q Q Q Q Q Q Q Q Q Q Q Q Q Q Q Q Q Q Q Q Q Q ",
"Q Q Q Q Q Q Q Q Q Q Q Q Q Q Q Q Q Q Q Q Q Q Q Q Q Q Q Q b ;.;.;.;.;.:.j.8 Q Q Q Q Q Q Q Q Q Q Q Q Q Q Q Q Q Q Q Q Q Q Q Q Q Q Q ",
"Q Q Q Q Q Q Q Q Q Q Q Q Q Q Q Q Q Q Q Q Q Q Q Q Q Q Q Q 9 ;.;.;.;.;.5.n. .0 Q Q Q Q Q Q Q Q Q Q Q Q Q Q Q Q Q Q Q Q Q Q Q Q Q Q ",
"Q Q Q Q Q Q Q Q Q Q Q Q Q Q Q Q Q Q Q Q Q Q Q Q Q Q Q Q u ;.;.;.;.;.4.n.n.j Q Q Q Q Q Q Q Q Q Q Q Q Q Q Q Q Q Q Q Q Q Q Q Q Q Q ",
"Q Q Q Q Q Q Q Q Q Q Q Q Q Q Q Q Q Q Q Q Q Q Q Q Q Q Q Q I ;.;.;.;.;.:.b.v.| , Q Q Q Q Q Q Q Q Q Q Q Q Q Q Q Q Q Q Q Q Q Q Q Q Q ",
"Q Q Q Q Q Q Q Q Q Q Q Q Q Q Q Q Q Q Q Q Q Q Q Q Q Q Q Q { ;.;.;.;.;.;.:.;.1.q Q Q Q Q Q Q Q Q Q Q Q Q Q Q Q Q Q Q Q Q Q Q Q Q Q ",
"Q Q Q Q Q Q Q Q Q Q Q Q Q Q Q Q Q Q Q Q Q Q Q Q Q Q Q Q X.;.;.;.;.;.;.;.;.2.] Q Q Q Q Q Q Q Q Q Q Q Q Q Q Q Q Q Q Q Q Q Q Q Q Q ",
"Q Q Q Q Q Q Q Q Q Q Q Q Q Q Q Q Q Q Q Q Q Q Q Q Q Q Q Q @.;.;.;.;.;.;.;.;.;.| r Q Q Q Q Q Q Q Q Q Q Q Q Q Q Q Q Q Q Q Q Q Q Q Q ",
"Q Q Q Q Q Q Q Q Q Q Q Q Q Q Q Q Q Q Q Q Q Q Q Q Q Q Q Q #.;.;.;.;.;.;.;.;.;.,.- Q Q Q Q Q Q Q Q Q Q Q Q Q Q Q Q Q Q Q Q Q Q Q Q ",
"Q Q Q Q Q Q Q Q Q Q Q Q Q Q Q Q Q Q Q Q Q Q Q Q Q Q Q Q *.;.;.;.;.;.;.;.;.;.3.* Q Q Q Q Q Q Q Q Q Q Q Q Q Q Q Q Q Q Q Q Q Q Q Q ",
"Q Q Q Q Q Q Q Q Q Q Q Q Q Q Q Q Q Q Q Q Q Q Q Q Q Q Q Q +.;.;.;.;.;.;.;.;.;.&.; Q Q Q Q Q Q Q Q Q Q Q Q Q Q Q Q Q Q Q Q Q Q Q Q ",
"Q Q Q Q Q Q Q Q Q Q Q Q Q Q Q Q Q Q Q Q Q Q Q Q Q Q Q Q R ;.;.;.;.;.;.;.;.O.' * Q Q Q Q Q Q Q Q Q Q Q Q Q Q Q Q Q Q Q Q Q Q Q Q ",
"Q Q Q Q Q Q Q Q Q Q Q Q Q Q Q Q Q Q Q Q Q Q Q Q Q Q Q Q J -.;.;.;.;.;.;.$.T ` - Q Q Q Q Q Q Q Q Q Q Q Q Q Q Q Q Q Q Q Q Q Q Q Q ",
"Q Q Q Q Q Q Q Q Q Q Q Q Q Q Q Q Q Q Q Q Q Q Q Q Q Q Q Q H ..;.;.;.;.-.o.T U L 0 Q Q Q Q Q Q Q Q Q Q Q Q Q Q Q Q Q Q Q Q Q Q Q Q ",
"Q Q Q Q Q Q Q Q Q Q Q Q Q Q Q Q Q Q Q Q Q Q Q Q Q Q Q Q G U =.;.-.-.W U U U w b Q Q Q Q Q Q Q Q Q Q Q Q Q Q Q Q Q Q Q Q Q Q Q Q ",
"Q Q Q Q Q Q Q Q Q Q Q Q Q Q Q Q Q Q Q Q Q Q Q Q Q Q Q Q e U U E Y U U U U U : Q Q Q Q Q Q Q Q Q Q Q Q Q Q Q Q Q Q Q Q Q Q Q Q Q ",
"Q Q Q Q Q Q Q Q Q Q Q Q Q Q Q Q Q Q Q Q Q Q Q Q Q Q Q Q 5 U U U U U U U U G - Q Q Q Q Q Q Q Q Q Q Q Q Q Q Q Q Q Q Q Q Q Q Q Q Q ",
"Q Q Q Q Q Q Q Q Q Q Q Q Q Q Q Q Q Q Q Q Q Q Q Q Q Q Q Q : U U U U U U U U = y Q Q Q Q Q Q Q Q Q Q Q Q Q Q Q Q Q Q Q Q Q Q Q Q Q ",
"Q Q Q Q Q Q Q Q Q Q Q Q Q Q Q Q Q Q Q Q Q Q Q Q Q Q Q Q y U U H J U U U G 6 Q Q Q Q Q Q Q Q Q Q Q Q Q Q Q Q Q Q Q Q Q Q Q Q Q Q ",
"Q Q Q Q Q Q Q Q Q Q Q Q Q Q Q Q Q Q Q Q Q Q Q Q Q Q Q Q Q K U < J U U K % Q Q Q Q Q Q Q Q Q Q Q Q Q Q Q Q Q Q Q Q Q Q Q Q Q Q Q ",
"Q Q Q Q Q Q Q Q Q Q Q Q Q Q Q Q Q Q Q Q Q Q Q Q Q Q Q Q Q > U + K U U O t Q Q Q Q Q Q Q Q Q Q Q Q Q Q Q Q Q Q Q Q Q Q Q Q Q Q Q ",
"Q Q Q Q Q Q Q Q Q Q Q Q Q Q Q Q Q Q Q Q Q Q Q Q Q Q Q Q Q 9 < @ 0 > o r Q Q Q Q Q Q Q Q Q Q Q Q Q Q Q Q Q Q Q Q Q Q Q Q Q Q Q Q ",
"Q Q Q Q Q Q Q Q Q Q Q Q Q Q Q Q Q Q Q Q Q Q Q Q Q Q Q Q Q Q S A.A.N.p.6.h 0 Q Q Q Q Q Q Q Q Q Q Q Q Q Q Q Q Q Q Q Q Q Q Q Q Q Q ",
"Q Q Q Q Q Q Q Q Q Q Q Q Q Q Q Q Q Q Q Q Q Q Q Q Q Q Q b ( L.P.P.P.P.P.P.L.p.B 0 Q Q Q Q Q Q Q Q Q Q Q Q Q Q Q Q Q Q Q Q Q Q Q Q ",
"Q Q Q Q Q Q Q Q Q Q Q Q Q Q Q Q Q Q Q Q Q Q Q Q Q Q Q g L.P.P.P.P.P.P.P.P.P.L.7.; Q Q Q Q Q Q Q Q Q Q Q Q Q Q Q Q Q Q Q Q Q Q Q ",
"Q Q Q Q Q Q Q Q Q Q Q Q Q Q Q Q Q Q Q Q Q Q Q Q Q Q t k.P.P.P.P.P.P.P.P.P.P.P.P.a.4 Q Q Q Q Q Q Q Q Q Q Q Q Q Q Q Q Q Q Q Q Q Q ",
"Q Q Q Q Q Q Q Q Q Q Q Q Q Q Q Q Q Q Q Q Q Q Q Q Q Q ~ P.P.P.P.P.P.P.P.P.P.P.P.P.P.N.4 Q Q Q Q Q Q Q Q Q Q Q Q Q Q Q Q Q Q Q Q Q ",
"Q Q Q Q Q Q Q Q Q Q Q Q Q Q Q Q Q Q Q Q Q Q Q Q Q b i.P.P.P.P.P.P.P.P.P.P.P.P.P.P.P.p.3 Q Q Q Q Q Q Q Q Q Q Q Q Q Q Q Q Q Q Q Q ",
"Q Q Q Q Q Q Q Q Q Q Q Q Q Q Q Q Q Q Q Q Q Q Q Q Q d L.P.P.P.P.P.P.P.P.P.P.P.P.P.P.P.P.t.0 Q Q Q Q Q Q Q Q Q Q Q Q Q Q Q Q Q Q Q ",
"Q Q Q Q Q Q Q Q Q Q Q Q Q Q Q Q Q Q Q Q Q Q Q Q Q _ P.P.P.P.P.P.P.P.P.P.P.P.P.P.P.P.P.P.s Q Q Q Q Q Q Q Q Q Q Q Q Q Q Q Q Q Q Q ",
"Q Q Q Q Q Q Q Q Q Q Q Q Q Q Q Q Q Q Q Q Q Q Q Q Q u.P.P.P.P.P.P.P.P.P.P.P.P.P.P.P.P.P.P.y.6 Q Q Q Q Q Q Q Q Q Q Q Q Q Q Q Q Q Q ",
"Q Q Q Q Q Q Q Q Q Q Q Q Q Q Q Q Q Q Q Q Q Q Q Q t m.P.P.P.P.P.P.P.P.P.P.P.P.P.P.P.F . X J.p Q Q Q Q Q Q Q Q Q Q Q Q Q Q Q Q Q Q ",
"Q Q Q Q Q Q Q Q Q Q Q Q Q Q Q Q Q Q Q Q Q Q Q Q t J.P.P.P.P.P.P.P.P.P.P.P.P.P.P.P.i     N.8.y Q Q Q Q Q Q Q Q Q Q Q Q Q Q Q Q Q ",
"Q Q Q Q Q Q Q Q Q Q Q Q Q Q Q Q Q Q Q Q Q Q Q Q m H.P.P.P.P.P.P.P.P.P.P.P.P.P.P.P.A.Z D J.M.6 Q Q Q Q Q Q Q Q Q Q Q Q Q Q Q Q Q ",
"Q Q Q Q Q Q Q Q Q Q Q Q Q Q Q Q Q Q Q Q Q Q Q Q ! D.P.P.P.P.P.P.P.P.P.P.P.P.P.P.P.P.P.P.P.S.7 Q Q Q Q Q Q Q Q Q Q Q Q Q Q Q Q Q ",
"Q Q Q Q Q Q Q Q Q Q Q Q Q Q Q Q Q Q Q Q Q Q Q b ~ D.P.P.P.P.P.P.P.P.P.P.P.P.P.P.P.P.P.P.P.P.h Q Q Q Q Q Q Q Q Q Q Q Q Q Q Q Q Q ",
"Q Q Q Q Q Q Q Q Q Q Q Q Q Q Q Q Q Q Q Q Q Q Q Q ^ K.P.P.P.P.P.P.P.P.P.P.P.P.P.P.P.P.P.P.P.P.& Q Q Q Q Q Q Q Q Q Q Q Q Q Q Q Q Q ",
"Q Q Q Q Q Q Q Q Q Q Q Q Q Q Q Q Q Q Q Q Q Q Q Q ^ L.P.P.P.P.P.P.P.P.P.P.P.P.P.A $ 2 P.P.P.P.# Q Q Q Q Q Q Q Q Q Q Q Q Q Q Q Q Q ",
"Q Q Q Q Q Q Q Q Q Q Q Q Q Q Q Q Q Q Q Q Q Q Q Q ^ P.P.P.P.P.P.P.P.P.P.P.P.P.P.P.J.B P.P.P.P.# Q Q Q Q Q Q Q Q Q Q Q Q Q Q Q Q Q ",
"Q Q Q Q Q Q Q Q Q Q Q Q Q Q Q Q Q Q Q Q Q Q Q Q ^ L.P.P.P.P.P.P.P.P.P.P.P.P.P.P.P.( P.P.P.P.# Q Q Q Q Q Q Q Q Q Q Q Q Q Q Q Q Q ",
"Q Q Q Q Q Q Q Q Q Q Q Q Q Q Q Q Q Q Q Q Q Q Q Q ~ D.P.P.P.P.P.P.P.P.P.P.P.P.P.L.V.0.P.P.P.P.* Q Q Q Q Q Q Q Q Q Q Q Q Q Q Q Q Q ",
"Q Q Q Q Q Q Q Q Q Q Q Q Q Q Q Q Q Q Q Q Q Q Q Q m V.P.P.P.P.P.P.P.P.P.P.P.P.P.d.6.P.P.P.P.S.6 Q Q Q Q Q Q Q Q Q Q Q Q Q Q Q Q Q ",
"Q Q Q Q Q Q Q Q Q Q Q Q Q Q Q Q Q Q Q Q Q Q Q Q c c.D.P.P.P.P.P.P.P.P.P.P.P.P.F.L.P.P.P.G.2 t Q Q Q Q Q Q Q Q Q Q Q Q Q Q Q Q Q ",
"Q Q Q Q Q Q Q Q Q Q Q Q Q Q Q Q Q Q Q Q Q Q Q Q t l.c.H.P.P.P.P.P.P.P.P.P.P.P.P.P.P.K.c.l.# Q Q Q Q Q Q Q Q Q Q Q Q Q Q Q Q Q Q ",
"Q Q Q Q Q Q Q Q Q Q Q Q Q Q Q Q Q Q Q Q Q Q Q Q t f.c.c.C.K.P.P.P.P.P.P.P.P.P.F.D.K.c.c.9.6 Q Q Q Q Q Q Q Q Q Q Q Q Q Q Q Q Q Q ",
"Q Q Q Q Q Q Q Q Q Q Q Q Q Q Q Q Q Q Q Q Q Q Q Q y w.c.c.c.c.C.K.P.P.P.P.L.D.Z.c.c.c.c.c.h Q Q Q Q Q Q Q Q Q Q Q Q Q Q Q Q Q Q Q ",
"Q Q Q Q Q Q Q Q Q Q Q Q Q Q Q Q Q Q Q Q Q Q Q Q Q } c.c.c.c.c.c.c.B.V.c.c.c.c.c.c.c.c.f.- Q Q Q Q Q Q Q Q Q Q Q Q Q Q Q Q Q Q Q ",
"Q Q Q Q Q Q Q Q Q Q Q Q Q Q Q Q Q Q Q Q Q Q Q Q Q ) c.c.c.c.c.c.c.c.c.c.c.c.c.c.c.c.x.^ y Q Q Q Q Q Q Q Q Q Q Q Q Q Q Q Q Q Q Q ",
"Q Q Q Q Q Q Q Q Q Q Q Q Q Q Q Q Q Q Q Q Q Q Q Q Q m c.c.c.c.c.c.c.c.c.c.c.c.c.c.c.c.s.; Q Q Q Q Q Q Q Q Q Q Q Q Q Q Q Q Q Q Q Q ",
"Q Q Q Q Q Q Q Q Q Q Q Q Q Q Q Q Q Q Q Q Q Q Q Q Q 0 g.c.c.c.c.c.c.c.c.c.c.c.c.c.c.c.S r Q Q Q Q Q Q Q Q Q Q Q Q Q Q Q Q Q Q Q Q ",
"Q Q Q Q Q Q Q Q Q Q Q Q Q Q Q Q Q Q Q Q Q Q Q Q Q Q _ c.c.c.c.c.c.c.c.c.c.c.c.c.c.d.3 Q Q Q Q Q Q Q Q Q Q Q Q Q Q Q Q Q Q Q Q Q ",
"Q Q Q Q Q Q Q Q Q Q Q Q Q Q Q Q Q Q Q Q Q Q Q Q Q Q c x.c.c.c.c.c.c.c.c.c.c.c.c.x.N y Q Q Q Q Q Q Q Q Q Q Q Q Q Q Q Q Q Q Q Q Q ",
"Q Q Q Q Q Q Q Q Q Q Q Q Q Q Q Q Q Q Q Q Q Q Q Q Q Q t r.c.s.9.w.q.[ r.c.c.c.c.c.9.6 Q Q Q Q Q Q Q Q Q Q Q Q Q Q Q Q Q Q Q Q Q Q ",
"Q Q Q Q Q Q Q Q Q Q Q Q Q Q Q Q Q Q Q Q Q Q Q Q b n n $ g.l./ f v , q.c.c.c.c.e.; Q Q Q Q Q Q Q Q Q Q Q Q Q Q Q Q Q Q Q Q Q Q Q ",
"Q Q Q Q Q Q Q Q Q Q Q Q Q Q Q Q Q Q Q Q Q Q Q Q b n n $ g.l./ f v f ( c.c.c.d.2 n n b b Q Q Q Q Q Q Q Q Q Q Q Q Q Q Q Q Q Q Q Q ",
"Q Q Q Q Q Q Q Q Q Q Q Q Q Q Q Q Q b Q Q Q M l z z k k k p C a k k k i x S x 1 k k k k z z M b Q Q Q Q Q Q Q Q Q Q Q Q Q Q Q Q Q ",
"Q Q Q Q Q Q Q Q Q Q Q Q Q Q Q Q Q Q Q Q Q Q Q Q Q Q Q Q Q Q Q Q Q Q Q Q Q Q Q Q Q Q Q Q Q Q Q Q Q Q Q Q Q Q Q Q Q Q Q Q Q Q Q Q ",
"Q Q Q Q Q Q Q Q Q Q Q Q Q Q Q Q Q Q Q Q Q Q Q Q Q Q Q Q Q Q Q Q Q Q Q Q Q Q Q Q Q Q Q Q Q Q Q Q Q Q Q Q Q Q Q Q Q Q Q Q Q Q Q Q ",
"Q Q Q Q Q Q Q Q Q Q Q Q Q Q Q Q Q Q Q Q Q Q Q Q Q Q Q Q Q Q Q Q Q Q Q Q Q Q Q Q Q Q Q Q Q Q Q Q Q Q Q Q Q Q Q Q Q Q Q Q Q Q Q Q "
};
