/* XPM */
static char *_b5aafdc54ad4c9ebf56fb037d0bb5b5YDbeTw8V0YySVBb0[] = {
/* columns rows colors chars-per-pixel */
"64 64 170 2 ",
"   c #415282",
".  c #34425F",
"X  c #577B85",
"o  c #3E4E7B",
"O  c #273958",
"+  c #4DA9E2",
"@  c #6FCEFF",
"#  c #80C4D5",
"$  c #3B4C62",
"%  c #3F507E",
"&  c #2C496A",
"*  c #4EA7E8",
"=  c #56BDFF",
"-  c #5BC0FF",
";  c #7AC8E7",
":  c #4B6874",
">  c #3A4974",
",  c #2D3B5B",
"<  c #4BA5DE",
"1  c #59BFFF",
"2  c #7BD5FD",
"3  c #344165",
"4  c #3C82AF",
"5  c #83D6F4",
"6  c #43517E",
"7  c #2F5F81",
"8  c #8FD3DF",
"9  c #ACF5FD",
"0  c #79ACB3",
"q  c #38466E",
"w  c #2F577A",
"e  c #74D1FF",
"r  c #495A6D",
"t  c #3F89B9",
"y  c #A0EEFF",
"u  c #93E5FF",
"i  c #68A4BA",
"p  c #313E61",
"a  c #23314A",
"s  c #53B7F6",
"d  c #73C8EE",
"f  c #3D5367",
"g  c #2F5C7E",
"h  c #62C5FF",
"j  c #598692",
"k  c #3B7CA7",
"l  c #384771",
"z  c #428EC0",
"x  c #6EC2EA",
"c  c #4599CD",
"v  c #2D3955",
"b  c #3568A7",
"n  c #54B7FA",
"m  c #5CAAE5",
"M  c #313D5B",
"N  c #274385",
"B  c #3E76C3",
"V  c #4895DD",
"C  c #4771B6",
"Z  c #263F7D",
"A  c #3153A5",
"S  c #4284CE",
"D  c #4EA6EB",
"F  c #355DAE",
"G  c #436AAD",
"H  c #25396A",
"J  c #3868B7",
"K  c #448AD4",
"L  c #385890",
"P  c #202E52",
"I  c #4FACF0",
"U  c #55BBFE",
"Y  c #52B5F8",
"T  c #3B70BD",
"R  c #2E4772",
"E  c #232E4C",
"W  c #2C4B95",
"Q  c #3763B2",
"!  c #3357A9",
"~  c #2C3F60",
"^  c #243868",
"/  c #2B4481",
"(  c #243255",
")  c #2A488F",
"_  c #233C77",
"`  c #2E4E9B",
"'  c #1C305F",
"]  c #1F2D52",
"[  c #283044",
"{  c #162343",
"}  c #3D465D",
"|  c #737A87",
" . c #AFB1B5",
".. c #D5D5D5",
"X. c gray89",
"o. c gray86",
"O. c #B7B7B9",
"+. c #838383",
"@. c #4B5265",
"#. c #454E62",
"$. c #A4A5A7",
"%. c #F3F3F3",
"&. c white",
"*. c #F7F9FC",
"=. c #5D626F",
"-. c #565969",
";. c #8C8D90",
":. c #36446B",
">. c #87888C",
",. c #BCBCBD",
"<. c #959799",
"1. c #656870",
"2. c #B3B3B5",
"3. c #464A59",
"4. c #AEAEAF",
"5. c #494F60",
"6. c #9FA0A2",
"7. c #3C4661",
"8. c #586379",
"9. c #DCE5F2",
"0. c #79859A",
"q. c #C3D1E9",
"w. c gray93",
"e. c #4A546B",
"r. c #2D354B",
"t. c #98A7BE",
"y. c #B8C9E5",
"u. c #E9EEF7",
"i. c #B6C7E2",
"p. c #B7C8E4",
"a. c #C9D5E9",
"s. c #67696D",
"d. c #393F4F",
"f. c #697386",
"g. c #F3F5FB",
"h. c #8A97AE",
"j. c #D0DBEE",
"k. c #919FB5",
"l. c #A3B1C6",
"z. c #3C4153",
"x. c #535D72",
"c. c #ECF1F9",
"v. c #A1AFC8",
"b. c #727D91",
"n. c #AFBFDA",
"m. c #B2C2DD",
"M. c #93A1B7",
"N. c #E2EAF5",
"B. c #8591A5",
"V. c #C0CFE8",
"C. c #A3B2CB",
"Z. c #9BA9C1",
"A. c #646D7D",
"S. c #393F52",
"D. c #ABBBD5",
"F. c #8793A8",
"G. c #7C889D",
"H. c #8B98AE",
"J. c #96A4BB",
"K. c #818CA2",
"L. c #49527A",
"P. c #A7B6D0",
"I. c #4D5374",
"U. c #494D6B",
"Y. c #525370",
"T. c #585469",
"R. c #5E5462",
"E. c #49474B",
"W. c #5A505B",
"Q. c #433D46",
/* pixels */
"                                                                                                                                ",
"                                                          . X .                                                                 ",
"                                                      o O + @ # $ o                                                             ",
"                                                    % & * = = - ; : >                                                           ",
"                                                    , < = = = = 1 2 : o                                                         ",
"                                                  3 4 = = = = = = = 5 $ o                                                       ",
"                                                6 7 = = = = = = = = 1 8 $                                                       ",
"                                                , + = = = = = = = = 2 9 0 q                                                     ",
"                                                w = = = = = = = = = e 9 9 r                                                     ",
"                                              3 t = = = = = = = = = 1 y u i p                                                   ",
"                                              a s = = = = = = = = = = 1 = d f                                                   ",
"                                              g = = = = = = = = = = = = = h j                                                   ",
"                                            o k = = = = = = = = = = = = = = i l                                                 ",
"                                            q z = = = = = = = = = = = = = = x ,                                                 ",
"                                            3 c = = = = = = = = = = = = = = @ v                                                 ",
"                                            3 b n = = = = = = = = = = = = = m M                                                 ",
"                                            3 N B = = = = = = = = = = = = V C v                                                 ",
"                                            l Z A S n = = = = = = = = = D F G ,                                                 ",
"                                            o H A A J * = = = = = = n K F A L q                                                 ",
"                                              P A A A A B I = = U Y T A A A R 6                                                 ",
"                                              E W A A A A A F Q ! A A A A A ~                                                   ",
"                                              o ^ A A A A A A A A A A A A / ,                                                   ",
"                                                ( A A A A A A A A A A A A O o                                                   ",
"                                                > ^ A A A A A ) W A A A / 3                                                     ",
"                                                  ( W A A A A _ W A A ` (                                                       ",
"                                                  6 E ` A A A ' ` A A ] >                                                       ",
"                                                    o ( W Z H [ q H { l                                                         ",
"                                                    l } |  ...X.X.o.O.+.@.q                                                     ",
"                                                o #.$.%.&.&.&.&.&.&.&.&.*.O.=.q                                                 ",
"                                              l -.%.&.&.&.&.&.&.&.&.&.&.&.&.*.;.M                                               ",
"                                            :.>.*.&.&.&.&.&.&.&.&.&.&.&.&.&.&.&.,.}                                             ",
"                                          :.<.&.&.&.&.&.&.&.&.&.&.&.&.&.&.&.&.&.&.o.}                                           ",
"                                        o 1.%.&.&.&.&.&.&.&.&.&.&.&.&.&.&.&.&.&.&.&.2..                                         ",
"                                        3.%.&.&.&.&.&.&.&.&.&.&.&.&.&.&.&.&.&.&.&.&.&.$.q                                       ",
"                                      l 4.&.&.&.&.&.&.&.&.&.&.&.&.&.&.&.&.&.&.&.&.&.&.&.5.                                      ",
"                                      #.&.&.&.&.&.&.&.&.&.&.&.&.&.&.&.&.&.&.&.&.&.&.&.&.4.3                                     ",
"                                    3 6.&.&.&.&.&.&.&.&.&.&.&.&.&.&.&.&.&.&.&.&.&.&.&.&.&.3.                                    ",
"                                    7.X.&.&.&.&.&.&.&.&.&.&.&.&.&.&.&.&.&.&.&.&.&.&.&.&.&.<.o                                   ",
"                                    8.9.&.&.&.&.&.&.&.&.&.&.&.&.&.&.&.&.&.&.&.&.&.&.&.&.&...3                                   ",
"                                  > 0.q.&.&.&.&.&.&.&.&.&.&.&.&.&.&.&.&.&.&.&.&.&.&.&.&.&.w.7.                                  ",
"                              3 e.r.t.y.u.&.&.&.&.&.&.&.&.&.&.&.&.&.&.&.&.&.&.&.&.&.&.&.&.&.@.                                  ",
"                              8.y.i.p.y.a.&.&.&.&.&.&.&.&.&.&.&.&.&.&.&.&.&.&.&.&.&.&.&.&.&.s.d.l                               ",
"                              7.i.y.y.y.y.u.&.&.&.&.&.&.&.&.&.&.&.&.&.&.&.&.&.&.&.&.&.&.&.&.&.%.=.                              ",
"                              l f.i.y.y.y.y.g.&.&.&.&.&.&.&.&.&.&.&.&.&.&.&.&.&.&.&.&.&.&.&.&.&.|                               ",
"                                , h.y.y.y.y.j.&.&.&.&.&.&.&.&.&.&.&.&.&.&.&.&.&.&.&.&.&.&.&.*.q.}                               ",
"                                  M k.y.y.y.y.9.&.&.&.&.&.&.&.&.&.&.&.&.&.&.&.&.&.&.&.&.g.9.l.z.o                               ",
"                                    x.y.y.y.y.y.9.&.&.&.&.&.&.&.&.&.&.&.&.&.&.&.&.&.c.y.y.v.v                                   ",
"                                    e.y.y.y.y.y.y.9.&.&.&.&.&.&.&.&.&.&.&.&.&.&.&.g.q.y.y.b.>                                   ",
"                                    7.n.y.y.y.y.y.y.j.g.&.&.&.&.&.&.&.&.&.&.&.&.c.q.y.y.m.r.                                    ",
"                                    3 M.y.y.y.y.y.y.y.q.u.&.&.&.&.&.&.&.&.&.&.N.y.y.y.y.B.3                                     ",
"                                    q f.y.y.y.y.y.y.y.y.y.q.9.g.&.&.&.&.*.N.a.y.y.y.y.y.e.                                      ",
"                                      #.y.y.y.y.y.y.y.y.y.y.y.y.y.V.q.y.y.y.y.y.y.y.y.C.,                                       ",
"                                      M l.y.y.y.y.y.y.y.y.y.y.y.y.y.y.y.y.y.y.y.y.y.p.f.o                                       ",
"                                      6 8.y.y.y.y.y.y.y.y.y.y.y.y.y.y.y.y.y.y.y.y.y.Z.M                                         ",
"                                        M l.y.y.y.y.y.y.y.y.y.y.y.y.y.y.y.y.y.y.y.y.A.l                                         ",
"                                          S.D.y.y.y.y.y.y.y.y.y.y.y.y.y.y.y.y.y.y.l..                                           ",
"                                          o e.i.y.y.y.y.y.y.y.y.y.y.y.y.y.y.y.y.p.x.o                                           ",
"                                            :.b.y.y.y.y.F.G.H.k.h.G.J.y.y.y.y.y.B.3                                             ",
"                                              M K.y.y.y.@.> q 3 q p H.y.y.y.y.M.M                                               ",
"                                        6 6 L.L.d.P.y.D.z.I.I.I.I.U.| y.y.y.l.z.L.L.6 6                                         ",
"                                  6 Y.T.T.R.R.R.R.E.A.3.W.R.R.R.R.R.E.-.A.-.Q.R.R.R.R.T.T.Y.6                                   ",
"                                                                                                                                ",
"                                                                                                                                ",
"                                                                                                                                "
};
